<svg width="20" height="20" viewBox="0 0 20 20" fill="none" xmlns="http://www.w3.org/2000/svg">
<path d="M9.99984 19.0005C11.203 19.0005 12.3939 18.7594 13.5023 18.2912C14.6106 17.8231 15.6138 17.1375 16.4526 16.2749C17.2914 15.4123 17.9487 14.3903 18.3857 13.2694C18.8227 12.1484 19.0305 10.9511 18.9968 9.74847C17.7382 10.6245 16.2266 11.063 14.6945 10.9966C13.1624 10.9301 11.6946 10.3624 10.5165 9.38058C9.33841 8.39879 8.51534 7.05731 8.17377 5.56229C7.8322 4.06727 7.99103 2.50145 8.62585 1.10547C6.38407 1.45093 4.35541 2.63013 2.94574 4.40714C1.53607 6.18414 0.849364 8.42789 1.02301 10.6895C1.19666 12.9511 2.21785 15.0637 3.88228 16.6046C5.5467 18.1456 7.73161 19.0013 9.99984 19.0005Z" stroke="black" stroke-width="1.5" stroke-linecap="round" stroke-linejoin="round"/>
</svg>
