<svg width="24" height="24" viewBox="0 0 24 24" fill="none" xmlns="http://www.w3.org/2000/svg">
<path fill-rule="evenodd" clip-rule="evenodd" d="M20.7501 21.9395H13.4971C13.0831 21.9395 12.7471 21.6035 12.7471 21.1895C12.7471 20.7755 13.0831 20.4395 13.4971 20.4395H20.7501C21.1641 20.4395 21.5001 20.7755 21.5001 21.1895C21.5001 21.6035 21.1641 21.9395 20.7501 21.9395Z" fill="black"/>
<mask id="mask0_730_27386" style="mask-type:alpha" maskUnits="userSpaceOnUse" x="2" y="3" width="18" height="19">
<path fill-rule="evenodd" clip-rule="evenodd" d="M2 3H19.1806V21.9395H2V3Z" fill="white"/>
</mask>
<g mask="url(#mask0_730_27386)">
<path fill-rule="evenodd" clip-rule="evenodd" d="M13.1103 5.01664L3.69527 16.7916C3.52427 17.0056 3.46127 17.2816 3.52427 17.5466L4.20527 20.4316L7.24427 20.3936C7.53327 20.3906 7.80027 20.2616 7.97727 20.0416C11.1943 16.0166 17.3273 8.34264 17.5013 8.11764C17.6653 7.85164 17.7293 7.47564 17.6433 7.11364C17.5553 6.74264 17.3243 6.42764 16.9913 6.22664C16.9203 6.17764 15.2353 4.86964 15.1833 4.82864C14.5493 4.32064 13.6243 4.40864 13.1103 5.01664ZM3.61327 21.9396C3.26627 21.9396 2.96427 21.7016 2.88327 21.3626L2.06427 17.8916C1.89527 17.1726 2.06327 16.4306 2.52427 15.8546L11.9443 4.07264C11.9483 4.06864 11.9513 4.06364 11.9553 4.05964C12.9883 2.82464 14.8563 2.64264 16.1163 3.65364C16.1663 3.69264 17.8393 4.99264 17.8393 4.99264C18.4473 5.35464 18.9223 6.00164 19.1023 6.76764C19.2813 7.52564 19.1513 8.30764 18.7343 8.96864C18.7033 9.01764 18.6763 9.05964 9.14827 20.9796C8.68927 21.5516 8.00127 21.8846 7.26227 21.8936L3.62327 21.9396H3.61327Z" fill="black"/>
</g>
<path fill-rule="evenodd" clip-rule="evenodd" d="M16.2234 11.6854C16.0634 11.6854 15.9034 11.6344 15.7664 11.5304L10.3144 7.34236C9.98642 7.09036 9.92442 6.62036 10.1764 6.29036C10.4294 5.96236 10.8994 5.90136 11.2284 6.15336L16.6814 10.3404C17.0094 10.5924 17.0714 11.0634 16.8184 11.3924C16.6714 11.5844 16.4484 11.6854 16.2234 11.6854Z" fill="black"/>
</svg>
