<svg width="22" height="22" viewBox="0 0 22 22" fill="none" xmlns="http://www.w3.org/2000/svg">
<path d="M1 11C1 16.523 5.477 21 11 21C16.523 21 21 16.523 21 11C21 5.477 16.523 1 11 1C5.477 1 1 5.477 1 11Z" stroke="#1F1D11" stroke-width="1.4" stroke-linecap="round" stroke-linejoin="round"/>
<path d="M11.9999 1.05078C11.9999 1.05078 14.9999 5.00078 14.9999 11.0008C14.9999 17.0008 11.9999 20.9508 11.9999 20.9508M9.99988 20.9508C9.99988 20.9508 6.99988 17.0008 6.99988 11.0008C6.99988 5.00078 9.99988 1.05078 9.99988 1.05078M1.62988 14.5008H20.3699M1.62988 7.50078H20.3699" stroke="#1F1D11" stroke-width="1.4" stroke-linecap="round" stroke-linejoin="round"/>
</svg>
