<svg width="21" height="20" viewBox="0 0 21 20" fill="none" xmlns="http://www.w3.org/2000/svg">
<mask id="mask0_1013_22999" style="mask-type:alpha" maskUnits="userSpaceOnUse" x="0" y="0" width="21" height="20">
<path fill-rule="evenodd" clip-rule="evenodd" d="M0 0H20.4725V19.501H0V0Z" fill="white"/>
</mask>
<g mask="url(#mask0_1013_22999)">
<path fill-rule="evenodd" clip-rule="evenodd" d="M1.82344 9.12317C3.22544 13.4852 8.76444 17.0122 10.2364 17.8852C11.7134 17.0032 17.2924 13.4372 18.6494 9.12717C19.5404 6.34117 18.7134 2.81217 15.4274 1.75317C13.8354 1.24217 11.9784 1.55317 10.6964 2.54517C10.4284 2.75117 10.0564 2.75517 9.78644 2.55117C8.42844 1.53017 6.65444 1.23117 5.03744 1.75317C1.75644 2.81117 0.93244 6.34017 1.82344 9.12317" fill="#CE0505"/>
</g>
<path fill-rule="evenodd" clip-rule="evenodd" d="M16.1537 7.62502C15.7667 7.62502 15.4387 7.32802 15.4067 6.93602C15.3407 6.11402 14.7907 5.42002 14.0077 5.16702C13.6127 5.03902 13.3967 4.61602 13.5237 4.22302C13.6527 3.82902 14.0717 3.61502 14.4677 3.73902C15.8307 4.18002 16.7857 5.38702 16.9027 6.81402C16.9357 7.22702 16.6287 7.58902 16.2157 7.62202C16.1947 7.62402 16.1747 7.62502 16.1537 7.62502Z" fill="white"/>
</svg>
