<svg width="24" height="24" viewBox="0 0 24 24" fill="none" xmlns="http://www.w3.org/2000/svg">
<path fill-rule="evenodd" clip-rule="evenodd" d="M12.251 8.5C11.286 8.5 10.501 9.285 10.501 10.251C10.501 11.216 11.286 12 12.251 12C13.216 12 14.001 11.216 14.001 10.251C14.001 9.285 13.216 8.5 12.251 8.5M12.251 13.5C10.459 13.5 9.00098 12.043 9.00098 10.251C9.00098 8.458 10.459 7 12.251 7C14.043 7 15.501 8.458 15.501 10.251C15.501 12.043 14.043 13.5 12.251 13.5" fill="black"/>
<mask id="mask0_650_28412" style="mask-type:alpha" maskUnits="userSpaceOnUse" x="4" y="2" width="17" height="20">
<path fill-rule="evenodd" clip-rule="evenodd" d="M4 2H20.4995V21.5H4V2Z" fill="white"/>
</mask>
<g mask="url(#mask0_650_28412)">
<path fill-rule="evenodd" clip-rule="evenodd" d="M12.249 3.5C8.52702 3.5 5.49902 6.557 5.49902 10.313C5.49902 15.092 11.123 19.748 12.249 19.996C13.375 19.747 18.999 15.091 18.999 10.313C18.999 6.557 15.971 3.5 12.249 3.5V3.5ZM12.249 21.5C10.455 21.5 3.99902 15.948 3.99902 10.313C3.99902 5.729 7.70002 2 12.249 2C16.798 2 20.499 5.729 20.499 10.313C20.499 15.948 14.043 21.5 12.249 21.5V21.5Z" fill="black"/>
</g>
</svg>
