<svg width="14" height="19" viewBox="0 0 14 19" fill="none" xmlns="http://www.w3.org/2000/svg">
<path d="M7 5.49982C5.89543 5.49982 5 6.39525 5 7.49982C5 8.60439 5.89543 9.49982 7 9.49982C8.10457 9.49982 9 8.60439 9 7.49982C9 6.39525 8.10457 5.49982 7 5.49982Z" fill="#1F1D11"/>
<path fill-rule="evenodd" clip-rule="evenodd" d="M3.5 14.9688C4.56619 16.2413 5.73694 17.4224 7 18.4998C8.26307 17.4224 9.43382 16.2413 10.5 14.9688C12.1 13.0578 14 10.2118 14 7.49981C14.0059 5.64219 13.2685 3.85941 11.952 2.54881C9.95007 0.545047 6.93789 -0.0547895 4.32107 1.0292C1.70425 2.1132 -0.00141647 4.66735 8.82649e-07 7.49981C8.82649e-07 10.2118 1.9 13.0578 3.5 14.9688ZM2 7.49981C2.00331 4.73975 4.23995 2.50311 7 2.49981C9.76006 2.50311 11.9967 4.73975 12 7.49981C12 8.66481 11.473 10.6838 8.966 13.6888C8.34724 14.4257 7.69105 15.1303 7 15.7998C6.30902 15.1295 5.65314 14.4239 5.035 13.6858C2.527 10.6848 2 8.66581 2 7.49981Z" fill="#1F1D11"/>
</svg>
