<svg width="189" height="163" viewBox="0 0 189 163" fill="none" xmlns="http://www.w3.org/2000/svg">
<g filter="url(#filter0_d_714_33098)">
<path d="M45.0295 98.0161L45.6773 97.7901C45.7752 97.7826 45.8354 97.8654 45.858 98.0462C45.8769 98.227 45.6321 98.5508 45.1199 99.0103C44.6077 99.4622 43.9675 99.7258 43.2068 99.7936C42.4536 99.8651 41.836 99.7032 41.354 99.3115C40.8795 98.9124 40.6159 98.355 40.5556 97.6395C40.4125 96.1557 41.2523 94.5891 43.0712 92.9396C44.8864 91.2826 47.1761 89.8816 49.9403 88.7368C52.7008 87.5844 55.3859 86.8839 57.9994 86.6429C61.8256 86.2927 64.7254 86.6542 66.7063 87.7275C68.6834 88.7933 69.768 90.375 69.9601 92.4726C70.2011 95.1464 68.5817 97.9031 65.1095 100.743C63.2793 102.23 61.272 103.477 59.084 104.478C61.5846 104.509 63.637 105.126 65.2451 106.331C66.4502 107.246 67.1205 108.482 67.2636 110.037C67.4143 111.585 66.8155 113.23 65.4711 114.978C64.1341 116.725 62.2813 118.243 59.9125 119.527C57.5513 120.815 55.0808 121.576 52.5012 121.817C49.5261 122.088 47.2816 121.644 45.7677 120.476C45.0747 119.934 44.7057 119.433 44.668 118.97C44.6266 118.499 44.6981 117.991 44.8789 117.448C43.9223 119.629 43.2294 121.271 42.8001 122.374C42.608 122.879 42.1524 123.165 41.4293 123.233C40.7138 123.293 40.1413 123.154 39.712 122.811C39.2902 122.461 39.0568 122.054 39.0191 121.591C38.9777 121.12 39.004 120.698 39.0944 120.325C39.6367 118.409 41.7343 113.833 45.3911 106.602C49.0553 99.3718 51.3149 95.169 52.1698 93.994C52.6217 93.3425 53.7364 92.932 55.5139 92.7588C56.2144 92.6986 56.5759 92.8266 56.5985 93.1354C56.6286 93.3764 55.7474 95.2443 53.9623 98.7391C52.1735 102.226 51.2433 104.053 51.1755 104.222C53.292 103.39 55.4461 102.324 57.6379 101.029C59.8259 99.7258 61.7051 98.3023 63.2717 96.7658C64.8459 95.2217 65.584 93.8886 65.4861 92.7739C65.3129 90.9286 63.2341 90.1829 59.2497 90.5444C55.062 90.9361 51.1454 92.4236 47.5 95.0033C46.5849 95.636 45.8919 96.2046 45.4212 96.7055C44.958 97.2101 44.7358 97.5566 44.7584 97.7449C44.7772 97.937 44.8676 98.0274 45.0295 98.0161ZM50.3018 108.907C50.0081 108.93 49.6616 108.628 49.2625 108.003C47.9971 110.515 46.679 113.313 45.3157 116.394C45.956 115.302 46.9878 114.692 48.4038 114.571C49.3453 114.481 49.8273 114.552 49.8499 114.782C49.8575 114.884 49.7596 114.985 49.5487 115.083C48.9536 115.377 48.6787 115.757 48.7202 116.228C48.8181 117.365 50.0759 117.817 52.4861 117.584C55.7286 117.294 58.5719 115.889 61.0122 113.366C62.3265 112.063 62.9403 110.956 62.85 110.052C62.7972 109.502 62.1646 108.945 60.9519 108.38C59.5548 107.77 57.4873 107.589 54.7457 107.838C52.8476 108.018 51.635 108.244 51.1153 108.515C50.6031 108.779 50.332 108.907 50.3018 108.907Z" fill="black"/>
<path d="M85.7449 100.539C86.9387 100.429 87.5714 100.787 87.6429 101.608C87.6806 102.053 87.6053 102.384 87.417 102.602C87.2362 102.825 86.8634 103.544 86.3022 104.757C85.7374 105.973 85.131 107.521 84.4795 109.396C83.8356 111.275 83.4627 112.857 83.3648 114.141C83.3234 114.314 83.3196 114.54 83.3498 114.819C83.4288 115.693 83.7 116.111 84.1632 116.069C84.6339 116.02 85.1725 115.738 85.775 115.226C86.3776 114.714 86.9048 114.183 87.3567 113.629C87.8162 113.079 88.2643 112.511 88.6974 111.927C89.1267 111.347 89.3903 111.008 89.4807 110.918C89.5711 110.827 89.7067 110.778 89.8874 110.767C90.1887 110.737 90.3883 110.948 90.49 111.4C90.5879 111.852 90.6594 112.326 90.7009 112.816C90.7498 113.298 90.7385 113.64 90.6707 113.84C90.2979 114.774 89.3941 115.945 87.9593 117.35C86.5207 118.747 85.1725 119.504 83.9071 119.624C82.6418 119.737 81.6701 119.436 80.9998 118.721C80.337 117.998 79.9604 117.169 79.87 116.235C79.7872 115.301 79.87 114.469 80.111 113.735C78.9662 115.553 77.5992 117.131 76.0137 118.465C74.4245 119.801 73.0989 120.517 72.0369 120.619C70.9711 120.717 70.0786 120.472 69.3555 119.881C68.399 119.157 67.8604 118.088 67.7286 116.672C67.6006 115.256 67.7851 113.802 68.286 112.303C68.7982 110.797 69.5137 109.404 70.4401 108.116C71.3741 106.832 72.4172 105.645 73.5734 104.561C75.9911 102.271 78.3034 101.028 80.5027 100.825C81.3538 100.746 82.058 100.825 82.6116 101.066C83.1728 101.299 83.5456 101.623 83.7263 102.045C84.0464 101.443 84.3327 101.058 84.585 100.885C84.8335 100.704 85.2214 100.591 85.7449 100.539ZM82.8376 103.446C80.1562 103.698 77.5088 105.446 74.899 108.688C73.9726 109.863 73.1516 111.234 72.4285 112.801C71.713 114.367 71.3816 115.429 71.4343 115.979C71.4833 116.533 71.664 116.8 71.9766 116.777C72.4172 116.728 73.5621 115.746 75.4112 113.825C77.2678 111.908 78.4917 110.511 79.0867 109.637C79.7081 108.654 80.9584 106.591 82.8376 103.446Z" fill="black"/>
<path d="M90.4422 118.765L88.9057 118.57C88.4463 118.558 88.0433 118.306 87.7006 117.801C87.6102 117.662 87.55 117.575 87.5198 117.545C87.4897 117.515 87.4746 117.481 87.4746 117.44C87.4671 117.391 87.4746 117.319 87.5048 117.229C87.5274 117.131 87.5613 117.01 87.6102 116.867C87.6629 116.717 87.7081 116.562 87.7458 116.4C87.968 115.248 90.2351 109.738 94.5546 99.8754C98.8817 90.0162 101.153 84.9284 101.363 84.6158C101.582 84.2957 101.748 84.066 101.861 83.9229C101.97 83.7722 102.09 83.6442 102.222 83.5312C102.361 83.422 102.467 83.3505 102.538 83.3203C102.606 83.2827 102.742 83.2149 102.945 83.1245C103.156 83.0341 103.371 82.9437 103.593 82.8534C103.823 82.7554 104.052 82.6236 104.286 82.4617C104.527 82.3035 104.693 82.1905 104.783 82.1303C104.873 82.07 104.986 82.0361 105.129 82.0248C105.28 82.006 105.423 82.0663 105.566 82.2056C105.717 82.3374 105.8 82.5069 105.822 82.7178L105.837 82.8835C105.785 83.1772 104.082 87.0863 100.731 94.6181C97.3753 102.142 95.5488 106.259 95.2475 106.97C96.4225 106.368 98.1134 104.997 100.324 102.858C102.542 100.719 103.631 99.3406 103.593 98.7155C103.563 98.0828 103.736 97.6083 104.12 97.2844C104.5 96.9643 104.934 96.7836 105.416 96.7421C105.898 96.6932 106.319 96.8137 106.681 97.1037C107.05 97.3861 107.261 97.8983 107.314 98.6402C107.363 99.3858 107.035 100.354 106.334 101.547C105.642 102.745 104.775 103.867 103.743 104.922C101.533 107.181 99.6612 108.718 98.1247 109.531C99.7102 112.868 101.326 114.453 102.975 114.291C103.868 114.092 104.903 113.26 106.078 111.791C106.53 111.271 106.956 110.736 107.359 110.194C107.758 109.652 108.007 109.332 108.097 109.23C108.195 109.132 108.342 109.072 108.534 109.049C108.835 109.019 109.035 109.23 109.136 109.682C109.246 110.134 109.321 110.608 109.362 111.098C109.411 111.58 109.396 111.923 109.317 112.122C108.944 113.049 108.044 114.212 106.621 115.617C105.205 117.025 103.796 117.794 102.403 117.922C101.416 118.012 100.614 117.899 99.9926 117.575C99.3788 117.255 98.893 116.984 98.5314 116.762C98.1774 116.532 97.8121 116.22 97.4318 115.828C97.059 115.429 96.7426 115.097 96.4828 114.834C96.2191 114.563 95.9179 114.193 95.5789 113.719C95.2475 113.237 95.0065 112.902 94.8559 112.71C94.7128 112.51 94.4981 112.179 94.2081 111.716C93.9144 111.256 93.7562 111.004 93.7261 110.962C93.4851 111.576 93.2215 112.239 92.9428 112.951C92.6716 113.655 92.4193 114.314 92.1896 114.924C91.9561 115.527 91.7452 116.08 91.5569 116.581C91.3649 117.074 91.2105 117.485 91.0899 117.816C90.9694 118.148 90.8979 118.325 90.879 118.344C90.7887 118.603 90.6418 118.743 90.4422 118.765Z" fill="black"/>
<path d="M123.341 97.3655C123.439 98.4124 123.103 99.3652 122.331 100.228C121.567 101.082 120.648 101.561 119.575 101.659C119.221 101.689 118.98 101.629 118.852 101.478C118.731 101.32 118.656 101.101 118.626 100.83C118.603 100.559 118.618 100.299 118.671 100.047C118.129 100.288 117.526 100.642 116.863 101.101C116.208 101.565 115.417 102.227 114.483 103.09C113.549 103.945 113.097 104.562 113.127 104.943C113.146 105.063 113.338 105.108 113.7 105.078C114.069 105.04 114.626 104.852 115.372 104.521C116.125 104.189 116.652 104.016 116.954 103.994C117.262 103.963 117.466 103.96 117.556 103.978C117.775 104.069 118.023 104.291 118.294 104.641C118.565 104.995 118.709 105.281 118.731 105.5C118.75 105.711 118.569 106.008 118.189 106.389C117.805 106.762 117.36 107.063 116.848 107.293C116.344 107.526 116.012 107.695 115.854 107.805C112.709 109.966 111.173 111.39 111.244 112.083C111.354 113.318 112.453 113.838 114.543 113.634C115.877 113.514 117.183 112.968 118.46 111.992C119.545 111.16 120.512 110.328 121.367 109.492C122.218 108.66 122.757 108.147 122.979 107.955C123.209 107.767 123.386 107.665 123.506 107.654C123.917 107.616 124.162 108.053 124.245 108.965C124.324 109.868 124.324 110.471 124.245 110.772C124.162 111.074 123.883 111.465 123.401 111.947C120.298 114.99 117.244 116.647 114.242 116.918C112.634 117.069 111.327 116.967 110.326 116.617C108.488 115.977 107.494 114.832 107.343 113.182C107.143 111.013 108.492 109.228 111.395 107.82C110.781 107.62 110.363 107.319 110.145 106.916C109.934 106.517 109.783 105.858 109.693 104.943C109.61 104.02 109.953 102.999 110.717 101.885C111.478 100.77 112.453 99.8322 113.64 99.0677C116.261 97.3128 118.656 96.3374 120.825 96.1453C121.337 96.0964 121.872 96.1717 122.437 96.3713C122.998 96.5746 123.299 96.906 123.341 97.3655Z" fill="black"/>
<path d="M131.562 101.442C134.895 96.8854 137.867 94.4827 140.48 94.2417C141.113 94.1814 141.655 94.3283 142.107 94.6785C142.559 95.0325 142.807 95.5146 142.86 96.1246C142.92 96.7385 142.581 97.8043 141.851 99.3182C141.117 100.836 140.424 102.12 139.772 103.174C139.418 103.728 138.996 104.029 138.507 104.078C138.013 104.12 137.61 103.969 137.302 103.626C137 103.287 136.823 102.869 136.774 102.376C136.673 101.303 137.143 100.022 138.19 98.5348L138.13 98.5047C137.618 98.5951 136.42 99.7362 134.545 101.924C132.677 104.116 131.095 106.063 129.8 107.769C128.512 109.479 127.134 111.546 125.657 113.975C125.236 114.691 124.851 115.06 124.513 115.09C124.17 115.12 123.714 115.06 123.142 114.909C122.562 114.751 122.208 114.63 122.087 114.548C121.959 114.457 121.884 114.303 121.861 114.081C121.842 113.862 121.884 113.606 121.982 113.312C122.072 113.011 122.268 112.574 122.569 112.002C122.863 111.429 123.292 110.518 123.865 109.26C124.437 108.006 125.33 106.097 126.546 103.536C127.77 100.975 128.504 99.4349 128.745 98.9114C129.246 97.8193 129.668 97.0209 130.011 96.5163C130.621 95.5522 131.777 94.9949 133.475 94.8442C133.845 94.8066 134.052 95.0212 134.093 95.492C134.161 96.2376 133.603 97.6913 132.421 99.8605L131.562 101.442Z" fill="black"/>
<path d="M150.746 120.529C150.674 120.62 150.467 121.034 150.128 121.78C149.797 122.533 149.435 123.294 149.044 124.069C148.652 124.853 148.147 125.598 147.537 126.314C146.935 127.037 146.407 127.444 145.956 127.534C145.511 127.632 145.232 127.688 145.112 127.7C143.666 127.839 142.875 127.18 142.747 125.726C142.585 124.009 143.289 121.915 144.856 119.445C145.447 118.53 146.212 117.52 147.146 116.417C148.08 115.321 148.584 114.703 148.667 114.564C148.746 114.432 149.721 112.124 151.589 107.635C150.234 109.435 148.957 110.911 147.763 112.064C146.566 113.208 145.376 113.89 144.193 114.112L144.027 114.127C143.414 114.188 142.792 114.041 142.159 113.69C141.527 113.352 141.165 112.677 141.075 111.672C140.936 110.177 141.203 108.697 141.873 107.228C142.114 106.708 142.529 105.835 143.124 104.607C143.715 103.383 144.261 102.197 144.766 101.052C145.255 100.148 145.745 99.0937 146.227 97.8886C146.716 96.6835 147.1 95.8211 147.372 95.2976C147.643 94.7666 147.918 94.4917 148.2 94.4691C148.49 94.439 148.87 94.5859 149.345 94.906C149.816 95.2185 150.072 95.614 150.113 96.096C150.162 96.578 149.33 98.7886 147.613 102.724C145.903 106.652 145.071 108.878 145.112 109.397C145.12 109.518 145.191 109.574 145.323 109.563C145.745 109.525 146.622 108.84 147.959 107.514C149.303 106.181 150.776 104.483 152.373 102.423C154.15 100.156 155.513 98.0995 156.47 96.2617C156.591 96.0433 156.685 95.8663 156.756 95.7345C156.835 95.6064 156.929 95.4407 157.042 95.2374C157.163 95.0265 157.257 94.8608 157.329 94.7403C157.408 94.6197 157.502 94.4804 157.615 94.3185C157.724 94.1603 157.818 94.0323 157.901 93.9419C157.991 93.8515 158.086 93.7611 158.187 93.6707C158.345 93.5126 158.534 93.4222 158.745 93.3996C158.956 93.3808 159.279 93.3996 159.724 93.4598C160.164 93.5126 160.432 93.5879 160.522 93.6858C160.62 93.7875 160.722 93.8816 160.823 93.972C160.993 94.1226 161.083 94.2733 161.095 94.4239C161.113 94.5746 161.068 94.7817 160.959 95.0415C160.857 95.2938 160.244 96.6082 159.121 98.9882C155.796 105.978 153.54 111.066 152.358 114.248C154.557 112.011 157.637 108.719 161.607 104.381C161.776 104.223 161.946 104.133 162.119 104.11C162.609 104.072 162.921 104.799 163.053 106.294C163.102 106.739 163.053 107.032 162.902 107.183C158.534 111.231 154.482 115.679 150.746 120.529Z" fill="black"/>
<path d="M79.9769 70.6566C80.346 70.6265 80.5568 70.9127 80.6096 71.5153C80.6698 72.1178 80.6397 73.1723 80.5192 74.6787C80.3987 75.6842 79.3932 77.2056 77.5064 79.243C75.2243 81.6758 72.6446 83.4985 69.7637 84.7111C68.0163 85.4342 66.2877 85.8786 64.5817 86.0367C62.8833 86.1987 61.2602 85.6262 59.7161 84.3195C58.1796 83.0051 57.321 81.3632 57.1402 79.3936C56.9595 77.4165 57.1628 75.3377 57.7579 73.1572C58.3604 70.9692 59.2416 68.849 60.4091 66.8003C61.584 64.7441 63.0038 62.7444 64.6721 60.8049C66.3367 58.8579 68.0991 57.1407 69.9595 55.6531C71.8274 54.1581 73.8045 52.9266 75.8946 51.9625C77.9922 50.9909 80.0146 50.4109 81.9653 50.2302C83.5093 50.0908 84.8801 50.5315 86.0777 51.5558C86.6878 52.0981 87.0343 52.8211 87.1171 53.725C87.2075 54.6288 86.8761 55.8151 86.1229 57.28C85.3697 58.7374 84.4395 60.0894 83.3361 61.3322C82.2402 62.5674 81.0841 63.6369 79.8714 64.5407C78.6663 65.437 77.6759 65.9191 76.9039 65.9869C76.1281 66.0584 75.4465 65.8814 74.8552 65.4596C74.2602 65.0303 73.9439 64.6274 73.9062 64.2545C73.8761 63.8742 73.9213 63.4486 74.0418 62.9741C74.1698 62.5034 74.3619 62.2586 74.6142 62.236C74.5615 62.3264 74.5389 62.4092 74.5389 62.477C74.5577 62.6691 74.8326 62.7406 75.3674 62.6879C75.9097 62.6389 76.7721 62.0778 77.9583 61.0008C79.1522 59.9275 80.2066 58.7487 81.1217 57.4608C82.0444 56.1653 82.4775 55.2163 82.4172 54.6137C82.3758 54.2032 82.0783 54.0225 81.5285 54.0714C80.0522 54.2145 78.0789 55.092 75.6084 56.7076C73.1379 58.3269 70.8106 60.3304 68.6339 62.718C66.4534 65.0981 64.6269 67.8623 63.1507 71.0031C61.6744 74.1477 61.0455 76.9043 61.2677 79.2731C61.3581 80.2673 61.6933 81.0431 62.277 81.5929C62.8569 82.1465 63.693 82.3725 64.7776 82.2708C65.8697 82.1729 67.135 81.7398 68.5736 80.9753C70.0085 80.2033 71.3604 79.2995 72.6258 78.2638C73.8911 77.232 75.0736 76.1813 76.1808 75.1155C77.2842 74.0422 78.1579 73.112 78.8019 72.3287C79.4534 71.5379 79.7811 71.0634 79.7811 70.9127C79.7811 70.7545 79.8451 70.6679 79.9769 70.6566Z" fill="black"/>
<path d="M85.0265 84.3562C88.3594 79.7994 91.3307 77.3968 93.9443 77.1557C94.577 77.0955 95.1192 77.2424 95.5712 77.5926C96.0231 77.9466 96.2716 78.4286 96.3243 79.0387C96.3846 79.6526 96.0457 80.7183 95.3151 82.2322C94.5807 83.7499 93.8878 85.0341 93.2363 86.0885C92.8823 86.6421 92.4605 86.9434 91.9709 86.9924C91.4776 87.0338 91.0746 86.8832 90.7658 86.5405C90.4645 86.2015 90.2875 85.7835 90.2386 85.2902C90.1369 84.2169 90.6077 82.9365 91.6546 81.4489L91.5943 81.4188C91.0822 81.5092 89.8846 82.6502 88.0092 84.8383C86.1412 87.03 84.5596 88.977 83.2641 90.683C81.9761 92.3927 80.5978 94.4602 79.1215 96.8893C78.6998 97.6048 78.3156 97.9738 77.9767 98.004C77.634 98.0341 77.1783 97.9738 76.6059 97.8232C76.0259 97.665 75.6719 97.5445 75.5514 97.4617C75.4234 97.3713 75.3481 97.2169 75.3255 96.9947C75.3066 96.7763 75.3481 96.5202 75.446 96.2264C75.5364 95.9252 75.7322 95.4883 76.0335 94.9159C76.3272 94.3435 76.7565 93.4321 77.329 92.1743C77.9014 90.9202 78.7939 89.0109 80.0103 86.4501C81.2342 83.8892 81.9686 82.349 82.2096 81.8255C82.7105 80.7334 83.1323 79.935 83.475 79.4304C84.085 78.4663 85.2412 77.9089 86.9396 77.7583C87.3087 77.7206 87.5158 77.9353 87.5572 78.406C87.625 79.1517 87.0677 80.6053 85.8852 82.7745L85.0265 84.3562Z" fill="black"/>
<path d="M111.766 73.3138C112.237 73.2648 112.738 73.4305 113.272 73.8109C113.803 74.195 114.108 74.8201 114.191 75.6938C114.27 76.56 114.071 77.7199 113.589 79.1736C113.114 80.6197 112.406 82.111 111.465 83.6475C110.531 85.184 109.48 86.6452 108.316 88.0311C107.149 89.4169 105.861 90.5844 104.445 91.5258C103.029 92.4598 101.711 92.9795 100.498 93.0925C99.2931 93.213 98.2876 92.9268 97.4855 92.2338C96.6909 91.5334 96.2277 90.5015 96.0996 89.1458C95.9791 87.79 96.1749 86.2611 96.6871 84.5513C97.2068 82.8341 97.9374 81.2938 98.8713 79.9268C99.8053 78.5635 100.837 77.317 101.974 76.1909C104.343 73.9013 106.497 72.666 108.437 72.4853C109.299 72.4062 109.966 72.5568 110.44 72.9372C110.621 73.0803 110.715 73.2046 110.727 73.3138L110.742 73.4493C110.952 73.4004 111.291 73.3552 111.766 73.3138ZM109.672 76.6579L109.506 76.673C108.953 76.7257 108.64 76.3529 108.572 75.5583C107.465 76.0328 106.328 76.801 105.153 77.863C103.985 78.9175 102.969 80.1339 102.095 81.5085C100.317 84.2802 99.4927 86.5548 99.6245 88.3323C99.7036 89.2173 100.065 89.6278 100.709 89.5676C101.349 89.5073 102.268 88.9951 103.466 88.0311C104.66 87.067 105.808 85.7414 106.915 84.0542C108.019 82.3596 108.828 80.9059 109.341 79.7008C109.86 78.4882 110.101 77.6747 110.064 77.2605C110.022 76.8387 109.89 76.6391 109.672 76.6579Z" fill="black"/>
<path d="M137.881 74.7784L137.49 73.6637C137.43 73.031 137.603 72.5113 138.017 72.0971C138.428 71.6866 138.97 71.4493 139.644 71.3891C140.97 71.2685 141.711 72.0481 141.873 73.7239C141.983 74.9403 141.542 76.6689 140.548 78.9059C139.554 81.1353 138.326 83.3195 136.872 85.4586C135.426 87.5977 133.852 89.4919 132.157 91.1376C130.47 92.7758 129.133 93.6382 128.15 93.7286C127.175 93.819 126.456 93.6156 125.996 93.111C125.544 92.6101 125.292 92.113 125.243 91.6197C125.202 91.1301 125.186 90.6631 125.198 90.2188C125.228 88.6634 125.514 87.1533 126.056 85.6846C124.58 88.0345 122.957 90.1811 121.191 92.1168C119.421 94.0562 117.881 95.0843 116.566 95.2049C115.934 95.2651 115.41 95.1182 115 94.768C114.597 94.4291 114.352 93.8115 114.261 92.9152C114.179 92.0113 114.567 90.2639 115.421 87.673C116.284 85.0745 117.139 82.9731 117.982 81.3763C117.651 81.6286 117.342 81.768 117.063 81.7981C116.792 81.8207 116.476 81.6927 116.114 81.4215C115.76 81.1428 115.576 80.9169 115.557 80.7436C115.546 80.5629 115.64 80.2993 115.843 79.9453C116.054 79.595 116.886 78.7025 118.344 77.2639C119.797 75.8178 120.814 75.0721 121.387 75.0194C121.967 74.9592 122.531 75.0157 123.074 75.1851C123.624 75.3584 123.917 75.637 123.947 76.0287C123.985 76.4128 123.104 78.7552 121.296 83.0635C119.489 87.3642 118.6 89.684 118.63 90.0229C118.63 90.0756 118.645 90.0982 118.675 90.0982C119.014 90.0681 120.513 88.2379 123.164 84.6C125.815 80.9658 127.894 77.9832 129.401 75.6521C129.6 75.2416 129.935 75.0157 130.41 74.9742L130.621 74.9592L131.886 74.5976C132.097 74.5788 132.3 74.6391 132.504 74.7784C132.715 74.9215 132.824 75.0571 132.835 75.1851C132.854 75.3056 132.632 75.8931 132.172 76.9476C131.709 78.002 130.975 79.9905 129.973 82.9128C128.967 85.8277 128.519 87.8462 128.632 88.9685C128.651 89.2509 128.76 89.3865 128.964 89.3752C129.555 89.3149 130.7 88.1211 132.398 85.79C134.104 83.4514 135.464 81.237 136.481 79.1469C137.494 77.0606 137.961 75.6031 137.881 74.7784Z" fill="black"/>
<path d="M154.669 87.2473C154.729 87.9402 155.234 88.2415 156.19 88.1511C156.691 88.1135 157.297 87.8047 158.013 87.2322C158.725 86.6523 159.361 86.0347 159.926 85.3794C161.41 83.6132 162.265 82.7207 162.487 82.6981C162.897 82.6604 163.153 83.2328 163.255 84.4153C163.364 85.5903 163.067 86.4339 162.366 86.946C160.306 89.1755 158.683 90.5689 157.501 91.1187C156.838 91.42 156.085 91.6007 155.241 91.661C154.405 91.7212 153.547 91.435 152.665 90.8024C151.78 90.1697 151.287 89.3525 151.189 88.347C151.099 87.3339 151.264 86.159 151.686 84.822C152.108 83.4776 152.552 82.3177 153.027 81.3423C153.498 80.3707 154.085 79.2409 154.789 77.953C155.49 76.6575 155.851 75.8553 155.874 75.5428L155.829 75.4976C155.317 75.5993 154.119 76.7441 152.244 78.9321C150.376 81.1239 148.843 83.0144 147.649 84.6112C146.452 86.2079 145.036 88.3281 143.401 90.9681C142.949 91.6911 142.558 92.0677 142.226 92.0978C141.895 92.128 141.435 92.0639 140.855 91.902C140.275 91.7438 139.918 91.6233 139.786 91.5405C139.658 91.4614 139.582 91.3258 139.56 91.1338C139.541 90.9455 139.575 90.7082 139.665 90.4258C139.748 90.1471 139.831 89.9098 139.921 89.7178C140.012 89.5295 140.159 89.232 140.358 88.829C140.562 88.4185 140.953 87.575 141.533 86.2983C142.124 85.0141 143.028 83.0972 144.245 80.5439C145.469 77.9831 146.203 76.4391 146.444 75.9043C146.945 74.8197 147.367 74.0213 147.709 73.5092C148.331 72.5564 149.487 72.0028 151.174 71.8522C151.554 71.8145 151.765 72.0292 151.807 72.4999C151.874 73.2456 151.313 74.6992 150.12 76.8684L149.261 78.4501C151.709 75.1775 153.829 73.0535 155.618 72.0781C156.499 71.5961 157.305 71.3249 158.028 71.2647C158.759 71.1969 159.361 71.3362 159.836 71.6865C160.306 72.0405 160.562 72.4547 160.604 72.9367C160.653 73.4188 160.544 74.0138 160.272 74.7143C160.001 75.4072 159.719 76.0361 159.429 76.5972C159.146 77.1508 158.766 77.8551 158.284 78.7062C157.81 79.561 157.553 80.028 157.516 80.1071C157.474 80.1786 157.365 80.3782 157.184 80.7096C157.011 81.0335 156.887 81.267 156.808 81.4176C156.725 81.5683 156.589 81.8319 156.401 82.201C156.22 82.5738 156.073 82.8864 155.964 83.1349C155.863 83.3759 155.727 83.6847 155.558 84.0538C155.384 84.4153 155.256 84.7317 155.166 85.0028C155.076 85.2664 154.974 85.5451 154.865 85.8464C154.703 86.4188 154.639 86.8858 154.669 87.2473Z" fill="black"/>
</g>
<path fill-rule="evenodd" clip-rule="evenodd" d="M125.324 22.839C123.155 22.0117 120.926 21.3816 118.637 20.9615C116.348 20.5371 114.041 20.3271 111.718 20.3271C109.391 20.3271 107.084 20.5371 104.795 20.9615C102.511 21.3816 100.277 22.0117 98.1082 22.839C96.1535 23.5934 97.2766 26.5598 99.2484 25.801C101.237 25.038 103.282 24.4636 105.378 24.0778C107.47 23.692 109.583 23.4949 111.718 23.4949C113.849 23.4949 115.962 23.692 118.054 24.0778C120.15 24.4636 122.195 25.038 124.184 25.801C126.155 26.5598 127.279 23.5934 125.324 22.839ZM131.419 7.76303C131.119 7.76303 130.824 7.80161 130.532 7.87877C130.241 7.95593 129.966 8.06738 129.7 8.21741C129.439 8.36316 129.203 8.54319 128.985 8.75324C128.77 8.95899 128.586 9.19476 128.427 9.45195C128.273 9.70915 128.153 9.97921 128.067 10.2707C127.982 10.5579 127.934 10.8494 127.926 11.1537C127.917 11.4538 127.947 11.7496 128.016 12.0411C128.084 12.3325 128.187 12.6112 128.329 12.8769C123.888 17.0435 114.41 14.7973 113.519 7.33866C113.771 7.20577 114.011 7.04717 114.234 6.85856C114.453 6.67424 114.65 6.46419 114.826 6.237C115.002 6.00553 115.147 5.7569 115.267 5.49542C115.383 5.23394 115.473 4.9596 115.533 4.67668C115.589 4.39376 115.619 4.10656 115.61 3.81936C115.606 3.53216 115.568 3.24496 115.499 2.96633C115.43 2.68341 115.332 2.41336 115.203 2.15616C115.075 1.89897 114.92 1.65463 114.736 1.43172C114.556 1.20882 114.35 1.00735 114.123 0.8316C113.896 0.651564 113.651 0.501532 113.39 0.377221C113.128 0.25291 112.854 0.158604 112.571 0.0943052C112.293 0.0300059 112.005 0 111.718 0C111.427 0 111.139 0.0300059 110.861 0.0943052C110.578 0.158604 110.304 0.25291 110.042 0.377221C109.785 0.501532 109.536 0.651564 109.309 0.8316C109.082 1.00735 108.876 1.20882 108.696 1.43172C108.512 1.65463 108.357 1.89897 108.229 2.15616C108.1 2.41336 108.002 2.68341 107.933 2.96633C107.865 3.24496 107.826 3.53216 107.822 3.81936C107.813 4.10656 107.843 4.39376 107.899 4.67668C107.959 4.9596 108.049 5.23394 108.165 5.49542C108.285 5.7569 108.435 6.00553 108.606 6.237C108.782 6.46419 108.979 6.67424 109.198 6.85856C109.421 7.04717 109.661 7.20577 109.913 7.33866C109.022 14.7973 99.5442 17.0435 95.1033 12.8769C95.2276 12.6455 95.3262 12.4011 95.3948 12.1482C95.4634 11.8953 95.5019 11.6338 95.5105 11.3724C95.5234 11.1109 95.5019 10.8494 95.4548 10.5879C95.4034 10.3307 95.3262 10.0821 95.2233 9.83775C95.1162 9.5977 94.9876 9.37051 94.8289 9.16047C94.6746 8.94613 94.4946 8.75324 94.2931 8.58177C94.0959 8.41031 93.8773 8.26457 93.6458 8.14025C93.4101 8.01594 93.1657 7.92164 92.9128 7.85305C92.6599 7.78447 92.3984 7.74589 92.137 7.73731C91.8712 7.72874 91.6097 7.74589 91.3525 7.79733C91.091 7.84448 90.8424 7.92164 90.5981 8.0288C90.358 8.13168 90.1308 8.26457 89.9208 8.41888C89.7065 8.57749 89.5136 8.75324 89.3421 8.95471C89.1706 9.15618 89.0249 9.37051 88.9006 9.60198C88.7763 9.83775 88.682 10.0821 88.6134 10.335C88.5448 10.5879 88.5062 10.8494 88.4976 11.1109C88.4891 11.3724 88.5105 11.6338 88.5577 11.8953C88.6091 12.1525 88.6862 12.4011 88.7891 12.6455C88.8963 12.8855 89.0292 13.1127 89.1835 13.3228C89.3421 13.5328 89.5221 13.7257 89.7193 13.8972C89.9208 14.0686 90.1394 14.2144 90.3709 14.3387C90.6066 14.463 90.851 14.5573 91.1039 14.6259C91.3611 14.6902 91.6183 14.7288 91.8841 14.7373C92.1455 14.7502 92.407 14.7288 92.6685 14.6773L96.6379 20.1384C96.8651 20.4557 97.1651 20.6743 97.5381 20.79C97.911 20.9058 98.2797 20.9015 98.6483 20.7686C102.879 19.2983 107.234 18.5653 111.718 18.5653C116.198 18.5653 120.553 19.2983 124.784 20.7686C125.152 20.9015 125.521 20.9058 125.894 20.79C126.267 20.6743 126.567 20.4557 126.794 20.1384L130.764 14.6773C131.004 14.7245 131.244 14.7459 131.488 14.7416C131.732 14.7373 131.972 14.7073 132.208 14.6516C132.448 14.5959 132.675 14.5187 132.898 14.4158C133.117 14.313 133.327 14.1886 133.52 14.0429C133.717 13.8972 133.893 13.7343 134.056 13.5499C134.214 13.3699 134.356 13.1727 134.471 12.9584C134.591 12.7483 134.69 12.5254 134.763 12.294C134.832 12.0625 134.883 11.8224 134.904 11.5824C134.926 11.3381 134.926 11.098 134.896 10.858C134.87 10.6136 134.819 10.3779 134.741 10.1464C134.664 9.91919 134.561 9.69629 134.441 9.48625C134.317 9.2762 134.171 9.08331 134.008 8.90327C133.846 8.72323 133.661 8.56463 133.464 8.42317C133.267 8.27743 133.057 8.1574 132.834 8.0631C132.611 7.9645 132.38 7.89163 132.144 7.84019C131.904 7.78875 131.664 7.76303 131.419 7.76732V7.76303Z" fill="black"/>
<path fill-rule="evenodd" clip-rule="evenodd" d="M128.123 50.8568C125.521 49.7894 122.838 48.9835 120.077 48.4391C117.317 47.899 114.53 47.6247 111.718 47.6247C108.902 47.6247 106.116 47.899 103.355 48.4391C100.595 48.9835 97.9112 49.7894 95.3092 50.8568C95.0863 50.9468 94.8934 51.0754 94.7262 51.2426C94.559 51.4097 94.4305 51.6026 94.3447 51.8255C94.2547 52.0441 94.2118 52.2713 94.2161 52.5071C94.2204 52.7472 94.2676 52.9743 94.3662 53.1887L100.642 67.4416C100.916 68.0889 101.349 68.6033 101.936 68.9848C102.524 69.3663 103.171 69.5549 103.87 69.5463H119.563C120.262 69.5549 120.909 69.3663 121.496 68.9848C122.083 68.6033 122.516 68.0889 122.791 67.4416L129.07 53.1887C129.165 52.9743 129.212 52.7472 129.216 52.5071C129.221 52.2713 129.178 52.0441 129.088 51.8255C129.002 51.6026 128.873 51.4097 128.706 51.2426C128.539 51.0754 128.346 50.9468 128.123 50.8568ZM104.174 64.2824L101.07 54.1146C100.59 52.5328 102.708 51.9799 103.064 53.5916L105.374 63.9652C105.571 64.8482 104.44 65.144 104.174 64.2824ZM108.739 64.1152L107.312 52.8757C107.089 51.1311 109.416 50.9253 109.502 52.6829L110.055 63.9995C110.102 64.9597 108.859 65.0711 108.739 64.1152ZM116.121 52.8757L114.693 64.1152C114.573 65.0711 113.33 64.964 113.377 63.9995L113.934 52.6829C114.02 50.9253 116.344 51.1311 116.121 52.8757ZM122.362 54.1146L119.258 64.2824C118.993 65.144 117.861 64.8439 118.062 63.9652L120.369 53.5916C120.724 51.9799 122.842 52.5328 122.362 54.1103V54.1146ZM136.032 37.3797C134.87 35.9523 133.571 34.6663 132.131 33.5217C130.699 32.3644 129.178 31.3313 127.57 30.4311C125.958 29.5309 124.287 28.7722 122.546 28.1592C120.806 27.5419 119.031 27.079 117.209 26.7661C115.392 26.4531 113.562 26.2988 111.718 26.2988C109.871 26.2988 108.04 26.4531 106.223 26.7661C104.405 27.079 102.626 27.5419 100.886 28.1592C99.1457 28.7722 97.4739 29.5309 95.8622 30.4311C94.2547 31.3313 92.733 32.3644 91.3012 33.5217C89.8609 34.6663 88.5621 35.9523 87.4004 37.3797C85.7201 39.5101 84.4512 42.5665 85.4329 45.2627C86.1402 47.2217 87.8248 48.362 89.7623 48.9278C91.4255 49.3993 93.0545 49.3093 94.6534 48.6492C97.3625 47.5561 100.153 46.7288 103.025 46.1715C105.897 45.6142 108.795 45.3356 111.718 45.3356C114.642 45.3356 117.54 45.6142 120.407 46.1715C123.279 46.7288 126.07 47.5561 128.783 48.6492C130.378 49.3093 132.011 49.3993 133.67 48.9278C135.608 48.362 137.292 47.2174 138.004 45.2627C138.981 42.5665 137.712 39.5058 136.032 37.3797ZM102.601 30.7226C100.766 31.8371 99.1371 33.196 97.7054 34.7906C96.7581 35.8237 95.9222 36.9425 95.2063 38.1513C94.6576 39.0943 93.8475 41.0404 94.1818 42.305C94.2376 42.5065 94.3276 42.6865 94.4605 42.8451C94.4948 42.8837 94.5076 42.9308 94.499 42.9823C94.4905 43.038 94.4647 43.0766 94.4176 43.1023C93.0673 43.9553 90.371 44.1954 89.9595 42.2235C89.8481 41.4477 89.9638 40.7061 90.311 39.9988C90.5639 39.4201 90.8811 38.8757 91.2584 38.3656C92.1757 37.1782 93.2131 36.1023 94.3662 35.1421C96.7752 33.0802 99.4715 31.5028 102.446 30.4054C102.549 30.3711 102.622 30.4011 102.669 30.4954C102.716 30.594 102.691 30.6669 102.601 30.7226ZM133.469 42.2235C133.061 44.1954 130.365 43.9553 129.01 43.1023C128.899 43.0337 128.886 42.948 128.968 42.8451C129.1 42.6822 129.195 42.5022 129.246 42.305C129.585 41.0404 128.77 39.0943 128.222 38.147C127.506 36.9425 126.674 35.8237 125.723 34.7906C124.295 33.1917 122.662 31.8371 120.832 30.7226C120.737 30.6669 120.716 30.5897 120.763 30.4954C120.806 30.3968 120.883 30.3668 120.982 30.4054C123.961 31.4985 126.653 33.0802 129.062 35.1421C130.215 36.1023 131.257 37.1782 132.174 38.3656C132.551 38.8757 132.868 39.4201 133.121 39.9988C133.469 40.7061 133.584 41.4477 133.473 42.2235H133.469Z" fill="#F3DC08"/>
<defs>
<filter id="filter0_d_714_33098" x="0.683594" y="21.4678" width="188.138" height="141.374" filterUnits="userSpaceOnUse" color-interpolation-filters="sRGB">
<feFlood flood-opacity="0" result="BackgroundImageFix"/>
<feColorMatrix in="SourceAlpha" type="matrix" values="0 0 0 0 0 0 0 0 0 0 0 0 0 0 0 0 0 0 127 0" result="hardAlpha"/>
<feOffset dx="-6.38607" dy="3.19303"/>
<feGaussianBlur stdDeviation="15.9652"/>
<feComposite in2="hardAlpha" operator="out"/>
<feColorMatrix type="matrix" values="0 0 0 0 0.89 0 0 0 0 0.8625 0 0 0 0 1 0 0 0 1 0"/>
<feBlend mode="normal" in2="BackgroundImageFix" result="effect1_dropShadow_714_33098"/>
<feBlend mode="normal" in="SourceGraphic" in2="effect1_dropShadow_714_33098" result="shape"/>
</filter>
</defs>
</svg>
