<svg width="24" height="24" viewBox="0 0 24 24" fill="none" xmlns="http://www.w3.org/2000/svg">
<path fill-rule="evenodd" clip-rule="evenodd" d="M4.14407 12.0015C4.14407 6.95154 8.31407 2.86154 13.4041 3.00154C18.0941 3.13154 22.0141 7.05154 22.1441 11.7415C22.2841 16.8315 18.1941 21.0015 13.1441 21.0015C11.0541 21.0015 9.14407 20.2915 7.62407 19.0915C7.15407 18.7315 7.12407 18.0215 7.54407 17.6015C7.90407 17.2415 8.46407 17.2115 8.86407 17.5215C10.0441 18.4515 11.5341 19.0015 13.1441 19.0015C17.0441 19.0015 20.1941 15.8115 20.1441 11.9015C20.0941 8.18154 16.9641 5.05154 13.2441 5.00154C9.32407 4.95154 6.14407 8.10154 6.14407 12.0015H7.93407C8.38407 12.0015 8.60407 12.5415 8.29407 12.8515L5.50407 15.6515C5.30407 15.8515 4.99407 15.8515 4.79407 15.6515L2.00407 12.8515C1.68407 12.5415 1.90407 12.0015 2.35407 12.0015H4.14407ZM12.1441 8.75154C12.1441 8.34154 12.4841 8.00154 12.8941 8.00154C13.3041 8.00154 13.6441 8.34154 13.6441 8.74154V12.1415L16.5241 13.8515C16.8741 14.0615 16.9941 14.5215 16.7841 14.8815C16.5741 15.2315 16.1141 15.3515 15.7541 15.1415L12.6341 13.2915C12.3341 13.1115 12.1441 12.7815 12.1441 12.4315V8.75154Z" fill="#19191B"/>
</svg>
