<svg width="24" height="24" viewBox="0 0 24 24" fill="none" xmlns="http://www.w3.org/2000/svg">
<path fill-rule="evenodd" clip-rule="evenodd" d="M14.8084 8.87391L19.6484 9.29391C20.5284 9.36391 20.8784 10.4639 20.2084 11.0439L16.5384 14.2239L17.6384 18.9539C17.8384 19.8139 16.9084 20.4939 16.1484 20.0339L11.9984 17.5239L7.84836 20.0239C7.08836 20.4839 6.15836 19.8039 6.35836 18.9439L7.45836 14.2239L3.78836 11.0439C3.11836 10.4639 3.47836 9.36391 4.35836 9.29391L9.18836 8.88391L11.0784 4.42391C11.4184 3.61391 12.5784 3.61391 12.9184 4.42391L14.8084 8.87391ZM11.9984 6.35391V15.6539L15.7684 17.9339L14.7684 13.6539L18.0884 10.7739L13.7084 10.3939L11.9984 6.35391Z" fill="#19191B"/>
</svg>
