<svg width="151" height="130" viewBox="0 0 151 130" fill="none" xmlns="http://www.w3.org/2000/svg">
<rect x="1.39941" y="1" width="148.105" height="127.53" rx="7" fill="#EFEFF0"/>
<mask id="mask0_203_8007" style="mask-type:alpha" maskUnits="userSpaceOnUse" x="65" y="55" width="21" height="20">
<path fill-rule="evenodd" clip-rule="evenodd" d="M65.3999 55.0002H85.3595V74.95H65.3999V55.0002Z" fill="white"/>
</mask>
<g mask="url(#mask0_203_8007)">
<path fill-rule="evenodd" clip-rule="evenodd" d="M71.0499 56.5C68.5289 56.5 66.8999 58.227 66.8999 60.899V69.051C66.8999 71.724 68.5289 73.45 71.0499 73.45H79.6999C82.2269 73.45 83.8599 71.724 83.8599 69.051V60.899C83.8599 58.227 82.2269 56.5 79.6999 56.5H71.0499ZM79.6999 74.95H71.0499C67.6699 74.95 65.3999 72.579 65.3999 69.051V60.899C65.3999 57.371 67.6699 55 71.0499 55H79.6999C83.0849 55 85.3599 57.371 85.3599 60.899V69.051C85.3599 72.579 83.0849 74.95 79.6999 74.95Z" fill="#AFB1B6"/>
</g>
<path fill-rule="evenodd" clip-rule="evenodd" d="M68.6809 70.1804C68.4949 70.1804 68.3099 70.1124 68.1649 69.9744C67.8639 69.6904 67.8519 69.2144 68.1369 68.9154L69.6649 67.3024C70.4739 66.4434 71.8389 66.4014 72.7019 67.2114L73.6599 68.1834C73.9269 68.4534 74.3609 68.4584 74.6289 68.1944C74.7299 68.0754 76.9079 65.4304 76.9079 65.4304C77.3219 64.9284 77.9059 64.6184 78.5549 64.5544C79.2049 64.4974 79.8359 64.6864 80.3389 65.0994C80.3819 65.1344 80.4209 65.1684 82.6169 67.4234C82.9059 67.7194 82.9009 68.1944 82.6039 68.4834C82.3079 68.7744 81.8319 68.7654 81.5429 68.4694C81.5429 68.4694 79.4939 66.3664 79.3479 66.2244C79.1929 66.0974 78.9439 66.0234 78.6989 66.0474C78.4499 66.0724 78.2259 66.1914 78.0669 66.3844C75.7429 69.2034 75.7149 69.2304 75.6769 69.2674C74.8189 70.1094 73.4339 70.0954 72.5909 69.2354C72.5909 69.2354 71.6609 68.2914 71.6449 68.2724C71.4139 68.0584 71.0019 68.0724 70.7549 68.3334L69.2249 69.9464C69.0769 70.1024 68.8789 70.1804 68.6809 70.1804Z" fill="#AFB1B6"/>
<path fill-rule="evenodd" clip-rule="evenodd" d="M71.9571 61.1289C71.4041 61.1289 70.9541 61.5789 70.9541 62.1329C70.9541 62.6869 71.4041 63.1379 71.9581 63.1379C72.5121 63.1379 72.9631 62.6869 72.9631 62.1329C72.9631 61.5799 72.5121 61.1299 71.9571 61.1289ZM71.9581 64.6379C70.5771 64.6379 69.4541 63.5139 69.4541 62.1329C69.4541 60.7519 70.5771 59.6289 71.9581 59.6289C73.3401 59.6299 74.4631 60.7539 74.4631 62.1329C74.4631 63.5139 73.3391 64.6379 71.9581 64.6379Z" fill="#AFB1B6"/>
<rect x="1.39941" y="1" width="148.105" height="127.53" rx="7" stroke="#AFB1B6" stroke-width="2"/>
</svg>
