<svg width="28" height="28" viewBox="0 0 28 28" fill="none" xmlns="http://www.w3.org/2000/svg">
<mask id="mask0_694_38978" style="mask-type:alpha" maskUnits="userSpaceOnUse" x="2" y="1" width="25" height="26">
<path fill-rule="evenodd" clip-rule="evenodd" d="M2.33325 1.16687H26.2497V26.256H2.33325V1.16687Z" fill="white"/>
</mask>
<g mask="url(#mask0_694_38978)">
<path fill-rule="evenodd" clip-rule="evenodd" d="M16.0028 17.8398C17.4075 17.8398 18.5508 18.975 18.5508 20.3703V23.959C18.5508 24.2588 18.7912 24.4991 19.0992 24.5061H21.3228C23.0752 24.5061 24.4997 23.0991 24.4997 21.3701V11.1921C24.4915 10.5971 24.208 10.0371 23.7215 9.66498L16.0297 3.53065C14.9972 2.71281 13.5528 2.71281 12.5168 3.53298L4.87751 9.66265C4.37234 10.0465 4.08884 10.6065 4.08301 11.212V21.3701C4.08301 23.0991 5.50751 24.5061 7.25984 24.5061H9.50451C9.82067 24.5061 10.0773 24.2553 10.0773 23.9473C10.0773 23.8796 10.0855 23.812 10.0995 23.7478V20.3703C10.0995 18.9831 11.2358 17.8491 12.63 17.8398H16.0028ZM21.3228 26.2561H19.0782C17.7925 26.2258 16.8008 25.2166 16.8008 23.959V20.3703C16.8008 19.9398 16.4427 19.5898 16.0028 19.5898H12.6358C12.2053 19.5921 11.8495 19.9433 11.8495 20.3703V23.9473C11.8495 24.0348 11.8378 24.1188 11.8133 24.1981C11.6873 25.3531 10.7003 26.2561 9.50451 26.2561H7.25984C4.54267 26.2561 2.33301 24.064 2.33301 21.3701V11.2038C2.34467 10.0441 2.87901 8.98248 3.80184 8.28365L11.426 2.16448C13.1048 0.834479 15.444 0.834479 17.1193 2.16215L24.7983 8.28715C25.7002 8.97431 26.2345 10.0336 26.2497 11.1793V21.3701C26.2497 24.064 24.04 26.2561 21.3228 26.2561V26.2561Z" fill="black"/>
</g>
</svg>
