<svg width="28" height="28" viewBox="0 0 28 28" fill="none" xmlns="http://www.w3.org/2000/svg">
<path fill-rule="evenodd" clip-rule="evenodd" d="M7.29159 4.08331C4.08325 4.08331 4.08325 4.32598 4.08325 7.29165V7.32081C4.08325 8.61231 4.08325 9.54565 4.39942 9.93998C4.70859 10.3226 5.62675 10.5 7.29159 10.5C8.95642 10.5 9.87459 10.3215 10.1838 9.93881C10.4999 9.54565 10.4999 8.61231 10.4999 7.31965C10.4999 4.32598 10.4999 4.08331 7.29159 4.08331M7.29159 12.25C5.32459 12.25 3.84875 12.0435 3.03792 11.0366C2.33325 10.1628 2.33325 8.97048 2.33325 7.32081L3.20825 7.29165H2.33325C2.33325 3.94331 2.54442 2.33331 7.29159 2.33331C12.0388 2.33331 12.2499 3.94331 12.2499 7.29165C12.2499 8.96931 12.2499 10.1628 11.5453 11.0366C10.7344 12.0435 9.25859 12.25 7.29159 12.25" fill="black"/>
<path fill-rule="evenodd" clip-rule="evenodd" d="M20.1248 4.08331C16.9165 4.08331 16.9165 4.32598 16.9165 7.29165V7.32081C16.9165 8.61231 16.9165 9.54565 17.2327 9.93998C17.5418 10.3226 18.46 10.5 20.1248 10.5C21.7897 10.5 22.7078 10.3215 23.017 9.93881C23.3332 9.54565 23.3332 8.61231 23.3332 7.31965C23.3332 4.32598 23.3332 4.08331 20.1248 4.08331M20.1248 12.25C18.1578 12.25 16.682 12.0435 15.8712 11.0366C15.1665 10.1628 15.1665 8.97048 15.1665 7.32081L16.0415 7.29165H15.1665C15.1665 3.94331 15.3777 2.33331 20.1248 2.33331C24.872 2.33331 25.0832 3.94331 25.0832 7.29165C25.0832 8.96931 25.0832 10.1628 24.3785 11.0366C23.5677 12.0435 22.0918 12.25 20.1248 12.25" fill="black"/>
<path fill-rule="evenodd" clip-rule="evenodd" d="M7.29159 16.9166C4.08325 16.9166 4.08325 17.1593 4.08325 20.125V20.1541C4.08325 21.4456 4.08325 22.379 4.39942 22.7733C4.70859 23.156 5.62675 23.3333 7.29159 23.3333C8.95642 23.3333 9.87459 23.1548 10.1838 22.7721C10.4999 22.379 10.4999 21.4456 10.4999 20.153C10.4999 17.1593 10.4999 16.9166 7.29159 16.9166M7.29159 25.0833C5.32459 25.0833 3.84875 24.8768 3.03792 23.87C2.33325 22.9961 2.33325 21.8038 2.33325 20.1541L3.20825 20.125H2.33325C2.33325 16.7766 2.54442 15.1666 7.29159 15.1666C12.0388 15.1666 12.2499 16.7766 12.2499 20.125C12.2499 21.8026 12.2499 22.9961 11.5453 23.87C10.7344 24.8768 9.25859 25.0833 7.29159 25.0833" fill="black"/>
<path fill-rule="evenodd" clip-rule="evenodd" d="M20.1248 16.9166C16.9165 16.9166 16.9165 17.1593 16.9165 20.125V20.1541C16.9165 21.4456 16.9165 22.379 17.2327 22.7733C17.5418 23.156 18.46 23.3333 20.1248 23.3333C21.7897 23.3333 22.7078 23.1548 23.017 22.7721C23.3332 22.379 23.3332 21.4456 23.3332 20.153C23.3332 17.1593 23.3332 16.9166 20.1248 16.9166M20.1248 25.0833C18.1578 25.0833 16.682 24.8768 15.8712 23.87C15.1665 22.9961 15.1665 21.8038 15.1665 20.1541L16.0415 20.125H15.1665C15.1665 16.7766 15.3777 15.1666 20.1248 15.1666C24.872 15.1666 25.0832 16.7766 25.0832 20.125C25.0832 21.8026 25.0832 22.9961 24.3785 23.87C23.5677 24.8768 22.0918 25.0833 20.1248 25.0833" fill="black"/>
</svg>
