<svg width="28" height="28" viewBox="0 0 28 28" fill="none" xmlns="http://www.w3.org/2000/svg">
<path fill-rule="evenodd" clip-rule="evenodd" d="M7.38235 9.73861L8.08585 18.1059C8.13719 18.7499 8.66335 19.2329 9.30619 19.2329H9.31085H22.0404H22.0427C22.6505 19.2329 23.1697 18.7803 23.256 18.1794L24.3644 10.5273C24.39 10.3453 24.3445 10.1633 24.2337 10.0163C24.124 9.86811 23.963 9.77245 23.781 9.74678C23.5372 9.75611 13.4187 9.74211 7.38235 9.73861V9.73861ZM9.30386 20.9829C7.76736 20.9829 6.46652 19.7836 6.34169 18.2494L5.27302 5.53978L3.51486 5.23645C3.03769 5.15245 2.71919 4.70095 2.80086 4.22378C2.88486 3.74661 3.34569 3.43628 3.81236 3.51095L6.23902 3.93095C6.62986 3.99978 6.92736 4.32411 6.96119 4.72078L7.23535 7.98861C23.8907 7.99561 23.9444 8.00378 24.0249 8.01311C24.6747 8.10761 25.2464 8.44711 25.636 8.96978C26.0257 9.49128 26.189 10.1341 26.0957 10.7781L24.9885 18.4291C24.7797 19.8851 23.515 20.9829 22.045 20.9829H22.0392H9.31319H9.30386Z" fill="black"/>
<path fill-rule="evenodd" clip-rule="evenodd" d="M20.1688 14.051H16.9348C16.4506 14.051 16.0598 13.659 16.0598 13.176C16.0598 12.693 16.4506 12.301 16.9348 12.301H20.1688C20.6518 12.301 21.0438 12.693 21.0438 13.176C21.0438 13.659 20.6518 14.051 20.1688 14.051" fill="black"/>
<path fill-rule="evenodd" clip-rule="evenodd" d="M8.80185 24.1522C9.15302 24.1522 9.43652 24.4357 9.43652 24.7869C9.43652 25.1381 9.15302 25.4227 8.80185 25.4227C8.44952 25.4227 8.16602 25.1381 8.16602 24.7869C8.16602 24.4357 8.44952 24.1522 8.80185 24.1522" fill="black"/>
<mask id="mask0_694_38974" style="mask-type:alpha" maskUnits="userSpaceOnUse" x="8" y="24" width="2" height="2">
<path fill-rule="evenodd" clip-rule="evenodd" d="M8.16553 24.7864C8.16553 25.1387 8.44903 25.4234 8.80253 25.4234V25.4234C9.15369 25.4234 9.43719 25.1387 9.43719 24.7864V24.7864C9.43719 24.4352 9.15369 24.1517 8.80253 24.1517V24.1517C8.44903 24.1517 8.16553 24.4352 8.16553 24.7864V24.7864Z" fill="white"/>
</mask>
<g mask="url(#mask0_694_38974)">
<path fill-rule="evenodd" clip-rule="evenodd" d="M2.33325 31.2556H15.2704V18.3184H2.33325V31.2556Z" fill="black"/>
</g>
<path fill-rule="evenodd" clip-rule="evenodd" d="M8.80068 24.5476C8.66885 24.5476 8.56152 24.6549 8.56152 24.7868C8.56152 25.0516 9.04102 25.0516 9.04102 24.7868C9.04102 24.6549 8.93252 24.5476 8.80068 24.5476M8.80068 26.2976C7.96768 26.2976 7.29102 25.6198 7.29102 24.7868C7.29102 23.9538 7.96768 23.2771 8.80068 23.2771C9.63368 23.2771 10.3115 23.9538 10.3115 24.7868C10.3115 25.6198 9.63368 26.2976 8.80068 26.2976" fill="black"/>
<path fill-rule="evenodd" clip-rule="evenodd" d="M21.9622 24.1522C22.3134 24.1522 22.5981 24.4357 22.5981 24.7869C22.5981 25.1381 22.3134 25.4227 21.9622 25.4227C21.6099 25.4227 21.3264 25.1381 21.3264 24.7869C21.3264 24.4357 21.6099 24.1522 21.9622 24.1522" fill="black"/>
<mask id="mask1_694_38974" style="mask-type:alpha" maskUnits="userSpaceOnUse" x="21" y="24" width="2" height="2">
<path fill-rule="evenodd" clip-rule="evenodd" d="M21.3267 24.7864C21.3267 25.1387 21.6102 25.4234 21.9625 25.4234V25.4234C22.3125 25.4234 22.5983 25.1387 22.5983 24.7864V24.7864C22.5983 24.4352 22.3125 24.1517 21.9625 24.1517V24.1517C21.6102 24.1517 21.3267 24.4352 21.3267 24.7864V24.7864Z" fill="white"/>
</mask>
<g mask="url(#mask1_694_38974)">
<path fill-rule="evenodd" clip-rule="evenodd" d="M15.4934 31.2556H28.4317V18.3184H15.4934V31.2556Z" fill="black"/>
</g>
<path fill-rule="evenodd" clip-rule="evenodd" d="M21.9611 24.5476C21.8304 24.5476 21.7231 24.6549 21.7231 24.7868C21.7243 25.0539 22.2026 25.0516 22.2014 24.7868C22.2014 24.6549 22.0929 24.5476 21.9611 24.5476M21.9611 26.2976C21.1281 26.2976 20.4514 25.6198 20.4514 24.7868C20.4514 23.9538 21.1281 23.2771 21.9611 23.2771C22.7952 23.2771 23.4731 23.9538 23.4731 24.7868C23.4731 25.6198 22.7952 26.2976 21.9611 26.2976" fill="black"/>
</svg>
