<svg width="28" height="28" viewBox="0 0 28 28" fill="none" xmlns="http://www.w3.org/2000/svg">
<mask id="mask0_694_38977" style="mask-type:alpha" maskUnits="userSpaceOnUse" x="3" y="2" width="21" height="24">
<path fill-rule="evenodd" clip-rule="evenodd" d="M3.50024 2.34698H23.3951V25.5094H3.50024V2.34698Z" fill="white"/>
</mask>
<g mask="url(#mask0_694_38977)">
<path fill-rule="evenodd" clip-rule="evenodd" d="M8.83553 4.09699C6.90236 4.09699 5.29703 5.66265 5.25153 7.59348V20.071C5.20836 22.0695 6.78336 23.7157 8.76203 23.76H18.17C20.1172 23.6795 21.6595 22.0613 21.6455 20.078V9.72965L16.238 4.09699H8.84953H8.83553ZM8.84953 25.51H8.72237C5.78003 25.4435 3.43736 22.9958 3.50153 20.0523V7.57248C3.5692 4.67798 5.9597 2.34698 8.8332 2.34698H8.85303H16.6114C16.8494 2.34698 17.0769 2.44382 17.2425 2.61532L23.1517 8.77182C23.308 8.93398 23.3955 9.15215 23.3955 9.37732V20.071C23.4165 22.9982 21.1369 25.3898 18.205 25.5088L8.84953 25.51Z" fill="black"/>
</g>
<path fill-rule="evenodd" clip-rule="evenodd" d="M22.5149 10.4817H19.3007C17.1657 10.4758 15.4297 8.73518 15.4297 6.60251V3.20868C15.4297 2.72568 15.8217 2.33368 16.3047 2.33368C16.7877 2.33368 17.1797 2.72568 17.1797 3.20868V6.60251C17.1797 7.77385 18.1329 8.72818 19.303 8.73168H22.5149C22.9979 8.73168 23.3899 9.12368 23.3899 9.60668C23.3899 10.0897 22.9979 10.4817 22.5149 10.4817" fill="black"/>
<path fill-rule="evenodd" clip-rule="evenodd" d="M16.0866 18.7932H9.78662C9.30362 18.7932 8.91162 18.4012 8.91162 17.9182C8.91162 17.4352 9.30362 17.0432 9.78662 17.0432H16.0866C16.5696 17.0432 16.9616 17.4352 16.9616 17.9182C16.9616 18.4012 16.5696 18.7932 16.0866 18.7932" fill="black"/>
<path fill-rule="evenodd" clip-rule="evenodd" d="M13.701 14.4158H9.78564C9.30264 14.4158 8.91064 14.0238 8.91064 13.5408C8.91064 13.0578 9.30264 12.6658 9.78564 12.6658H13.701C14.184 12.6658 14.576 13.0578 14.576 13.5408C14.576 14.0238 14.184 14.4158 13.701 14.4158" fill="black"/>
</svg>
