<svg width="28" height="28" viewBox="0 0 28 28" fill="none" xmlns="http://www.w3.org/2000/svg">
<mask id="mask0_694_38911" style="mask-type:alpha" maskUnits="userSpaceOnUse" x="3" y="2" width="21" height="24">
<path fill-rule="evenodd" clip-rule="evenodd" d="M3.50049 2.34692H23.3953V25.5093H3.50049V2.34692Z" fill="white"/>
</mask>
<g mask="url(#mask0_694_38911)">
<path fill-rule="evenodd" clip-rule="evenodd" d="M8.83578 4.09692C6.90261 4.09692 5.29728 5.66259 5.25178 7.59342V20.0709C5.20861 22.0694 6.78361 23.7156 8.76228 23.7599H18.1703C20.1174 23.6794 21.6598 22.0613 21.6458 20.0779V9.72959L16.2383 4.09692H8.84978H8.83578ZM8.84978 25.5099H8.72261C5.78028 25.4434 3.43761 22.9958 3.50178 20.0523V7.57242C3.56944 4.67792 5.95994 2.34692 8.83344 2.34692H8.85328H16.6116C16.8496 2.34692 17.0771 2.44376 17.2428 2.61526L23.1519 8.77176C23.3083 8.93392 23.3958 9.15209 23.3958 9.37726V20.0709C23.4168 22.9981 21.1371 25.3898 18.2053 25.5088L8.84978 25.5099Z" fill="#AFB1B6"/>
</g>
<path fill-rule="evenodd" clip-rule="evenodd" d="M22.5149 10.4817H19.3007C17.1657 10.4759 15.4297 8.73524 15.4297 6.60257V3.20874C15.4297 2.72574 15.8217 2.33374 16.3047 2.33374C16.7877 2.33374 17.1797 2.72574 17.1797 3.20874V6.60257C17.1797 7.77391 18.1329 8.72824 19.303 8.73174H22.5149C22.9979 8.73174 23.3899 9.12374 23.3899 9.60674C23.3899 10.0897 22.9979 10.4817 22.5149 10.4817" fill="#AFB1B6"/>
<path fill-rule="evenodd" clip-rule="evenodd" d="M16.0871 18.7932H9.78711C9.30411 18.7932 8.91211 18.4012 8.91211 17.9182C8.91211 17.4352 9.30411 17.0432 9.78711 17.0432H16.0871C16.5701 17.0432 16.9621 17.4352 16.9621 17.9182C16.9621 18.4012 16.5701 18.7932 16.0871 18.7932" fill="#AFB1B6"/>
<path fill-rule="evenodd" clip-rule="evenodd" d="M13.7015 14.4158H9.78613C9.30313 14.4158 8.91113 14.0238 8.91113 13.5408C8.91113 13.0578 9.30313 12.6658 9.78613 12.6658H13.7015C14.1845 12.6658 14.5765 13.0578 14.5765 13.5408C14.5765 14.0238 14.1845 14.4158 13.7015 14.4158" fill="#AFB1B6"/>
</svg>
