<svg width="28" height="28" viewBox="0 0 28 28" fill="none" xmlns="http://www.w3.org/2000/svg">
<path fill-rule="evenodd" clip-rule="evenodd" d="M7.29183 4.08325C4.0835 4.08325 4.0835 4.32592 4.0835 7.29159V7.32075C4.0835 8.61225 4.0835 9.54559 4.39966 9.93992C4.70883 10.3226 5.627 10.4999 7.29183 10.4999C8.95666 10.4999 9.87483 10.3214 10.184 9.93875C10.5002 9.54559 10.5002 8.61225 10.5002 7.31959C10.5002 4.32592 10.5002 4.08325 7.29183 4.08325M7.29183 12.2499C5.32483 12.2499 3.849 12.0434 3.03816 11.0366C2.3335 10.1628 2.3335 8.97042 2.3335 7.32075L3.2085 7.29159H2.3335C2.3335 3.94325 2.54466 2.33325 7.29183 2.33325C12.039 2.33325 12.2502 3.94325 12.2502 7.29159C12.2502 8.96925 12.2502 10.1628 11.5455 11.0366C10.7347 12.0434 9.25883 12.2499 7.29183 12.2499" fill="#AFB1B6"/>
<path fill-rule="evenodd" clip-rule="evenodd" d="M20.1253 4.08325C16.917 4.08325 16.917 4.32592 16.917 7.29159V7.32075C16.917 8.61225 16.917 9.54559 17.2332 9.93992C17.5423 10.3226 18.4605 10.4999 20.1253 10.4999C21.7902 10.4999 22.7083 10.3214 23.0175 9.93875C23.3337 9.54559 23.3337 8.61225 23.3337 7.31959C23.3337 4.32592 23.3337 4.08325 20.1253 4.08325M20.1253 12.2499C18.1583 12.2499 16.6825 12.0434 15.8717 11.0366C15.167 10.1628 15.167 8.97042 15.167 7.32075L16.042 7.29159H15.167C15.167 3.94325 15.3782 2.33325 20.1253 2.33325C24.8725 2.33325 25.0837 3.94325 25.0837 7.29159C25.0837 8.96925 25.0837 10.1628 24.379 11.0366C23.5682 12.0434 22.0923 12.2499 20.1253 12.2499" fill="#AFB1B6"/>
<path fill-rule="evenodd" clip-rule="evenodd" d="M7.29183 16.9165C4.0835 16.9165 4.0835 17.1592 4.0835 20.1248V20.154C4.0835 21.4455 4.0835 22.3788 4.39966 22.7732C4.70883 23.1558 5.627 23.3332 7.29183 23.3332C8.95666 23.3332 9.87483 23.1547 10.184 22.772C10.5002 22.3788 10.5002 21.4455 10.5002 20.1528C10.5002 17.1592 10.5002 16.9165 7.29183 16.9165M7.29183 25.0832C5.32483 25.0832 3.849 24.8767 3.03816 23.8698C2.3335 22.996 2.3335 21.8037 2.3335 20.154L3.2085 20.1248H2.3335C2.3335 16.7765 2.54466 15.1665 7.29183 15.1665C12.039 15.1665 12.2502 16.7765 12.2502 20.1248C12.2502 21.8025 12.2502 22.996 11.5455 23.8698C10.7347 24.8767 9.25883 25.0832 7.29183 25.0832" fill="#AFB1B6"/>
<path fill-rule="evenodd" clip-rule="evenodd" d="M20.1253 16.9165C16.917 16.9165 16.917 17.1592 16.917 20.1248V20.154C16.917 21.4455 16.917 22.3788 17.2332 22.7732C17.5423 23.1558 18.4605 23.3332 20.1253 23.3332C21.7902 23.3332 22.7083 23.1547 23.0175 22.772C23.3337 22.3788 23.3337 21.4455 23.3337 20.1528C23.3337 17.1592 23.3337 16.9165 20.1253 16.9165M20.1253 25.0832C18.1583 25.0832 16.6825 24.8767 15.8717 23.8698C15.167 22.996 15.167 21.8037 15.167 20.154L16.042 20.1248H15.167C15.167 16.7765 15.3782 15.1665 20.1253 15.1665C24.8725 15.1665 25.0837 16.7765 25.0837 20.1248C25.0837 21.8025 25.0837 22.996 24.379 23.8698C23.5682 24.8767 22.0923 25.0832 20.1253 25.0832" fill="#AFB1B6"/>
</svg>
