<svg width="28" height="28" viewBox="0 0 28 28" fill="none" xmlns="http://www.w3.org/2000/svg">
<mask id="mask0_694_38904" style="mask-type:alpha" maskUnits="userSpaceOnUse" x="2" y="1" width="25" height="26">
<path fill-rule="evenodd" clip-rule="evenodd" d="M2.3335 1.16699H26.2499V26.2562H2.3335V1.16699Z" fill="white"/>
</mask>
<g mask="url(#mask0_694_38904)">
<path fill-rule="evenodd" clip-rule="evenodd" d="M16.0033 17.8399C17.408 17.8399 18.5513 18.975 18.5513 20.3704V23.959C18.5513 24.2589 18.7917 24.4992 19.0997 24.5062H21.3233C23.0757 24.5062 24.5002 23.0992 24.5002 21.3702V11.1922C24.492 10.5972 24.2085 10.0372 23.722 9.66504L16.0302 3.53071C14.9977 2.71287 13.5533 2.71287 12.5173 3.53304L4.878 9.66271C4.37283 10.0465 4.08933 10.6065 4.0835 11.212V21.3702C4.0835 23.0992 5.508 24.5062 7.26033 24.5062H9.505C9.82116 24.5062 10.0778 24.2554 10.0778 23.9474C10.0778 23.8797 10.086 23.812 10.1 23.7479V20.3704C10.1 18.9832 11.2363 17.8492 12.6305 17.8399H16.0033ZM21.3233 26.2562H19.0787C17.793 26.2259 16.8013 25.2167 16.8013 23.959V20.3704C16.8013 19.9399 16.4432 19.5899 16.0033 19.5899H12.6363C12.2058 19.5922 11.85 19.9434 11.85 20.3704V23.9474C11.85 24.0349 11.8383 24.1189 11.8138 24.1982C11.6878 25.3532 10.7008 26.2562 9.505 26.2562H7.26033C4.54316 26.2562 2.3335 24.064 2.3335 21.3702V11.2039C2.34516 10.0442 2.8795 8.98254 3.80233 8.28371L11.4265 2.16454C13.1053 0.83454 15.4445 0.83454 17.1198 2.16221L24.7988 8.28721C25.7007 8.97437 26.235 10.0337 26.2502 11.1794V21.3702C26.2502 24.064 24.0405 26.2562 21.3233 26.2562V26.2562Z" fill="#AFB1B6"/>
</g>
</svg>
