<svg width="292" height="247" viewBox="0 0 292 247" fill="none" xmlns="http://www.w3.org/2000/svg">
<path d="M259.511 8.2793V245.651H159.938V8.2793H259.511Z" fill="black"/>
<path d="M121.221 224.329L79.0697 211.717L76.1465 231.545C76.1465 236.922 80.1735 241.255 85.1614 241.255H119.483C123.878 241.255 127.435 237.433 127.435 232.69C127.435 228.684 124.839 225.208 121.221 224.329Z" fill="#E1A569"/>
<path d="M242.503 40.374L242.769 40.5988C242.789 40.1082 242.83 39.638 242.871 39.2496C242.973 38.3298 242.278 37.5121 241.379 37.4508L231.321 36.7148C229.768 39.5767 229.604 42.9496 230.729 45.8728L240.03 41.9684L240.479 42.8474C241.195 41.948 241.951 40.9872 242.503 40.374Z" fill="#E1A569"/>
<path d="M250.373 55.2116L249.371 52.4519C248.737 52.7381 248.104 52.8199 247.49 52.5541C246.897 52.2679 246.366 51.9204 245.896 51.5116C245.732 51.3685 245.589 51.2254 245.446 51.0823C245.426 51.0619 245.405 51.0414 245.385 51.021C245.262 50.8983 245.16 50.7552 245.058 50.6326C245.017 50.5713 244.976 50.5304 244.935 50.4691C244.894 50.4282 244.853 50.3668 244.812 50.3055C244.465 49.8354 244.179 49.3039 243.933 48.7519C242.85 46.3602 242.666 43.4166 242.748 41.168C242.175 41.8221 241.48 42.7216 240.847 43.5597L242.87 47.6072C242.973 47.8116 243.054 48.016 243.116 48.2204C243.279 48.1796 243.443 48.1182 243.627 48.0365L243.872 48.711C243.647 48.7928 243.443 48.8541 243.259 48.9359C243.259 48.9564 243.259 48.9768 243.259 48.9972C243.3 49.4878 243.238 49.9376 243.095 50.3668C243.054 50.5099 242.993 50.653 242.932 50.7757C242.932 50.7961 242.911 50.8166 242.911 50.837C242.85 50.9392 242.789 51.0619 242.707 51.1641C242.686 51.1845 242.666 51.2254 242.625 51.2663C242.564 51.3481 242.502 51.4298 242.441 51.4911C242.38 51.5525 242.318 51.5934 242.257 51.6547C242.216 51.6956 242.155 51.7569 242.094 51.7978C241.971 51.8795 241.848 51.9613 241.705 52.0226L240.642 52.5746L240.233 52.779C240.397 52.7994 240.56 52.7994 240.724 52.7994L242.646 58.053L250.373 55.2116Z" fill="#E1A569"/>
<path d="M67.3364 224.639L33.8729 195.918L23.2227 212.864C21.0763 217.77 23.0183 223.392 27.5564 225.416L58.9347 239.418C62.9618 241.217 67.7452 239.153 69.6668 234.819C71.2817 231.16 70.3005 226.928 67.3364 224.639Z" fill="#E1A569"/>
<path d="M76.8002 52.1677C77.1477 52.4539 77.5157 52.6992 77.8836 52.9241L77.1886 58.7705L85.3449 59.7517L86.0195 54.2119C88.2886 53.66 90.4145 52.3721 91.9886 50.3688C95.6885 45.6467 94.8709 38.7987 90.1897 35.0578C85.488 31.3374 78.7013 32.1551 75.0013 36.8771C71.3013 41.5992 72.119 48.4473 76.8002 52.1677Z" fill="#E1A569"/>
<path d="M152.967 93.7269C156.913 91.4987 155.686 89.7816 155.686 89.7816C153.233 83.8534 134.488 94.1766 134.488 94.1766C134.488 94.1766 134.467 94.2379 134.386 94.3401L104.704 101.188L89.6995 69.0126C87.4918 64.2496 81.8294 62.1849 77.0868 64.4336C72.3443 66.6617 70.3001 72.365 72.5283 77.1485L88.289 110.959C88.0846 112.186 88.105 113.453 88.3912 114.741C89.5564 119.893 94.6465 123.102 99.7569 121.937L136.818 113.392C138.086 113.821 139.578 114.128 141.356 114.291C151.7 115.743 158.895 115.927 159.836 112.942C160.592 110.591 158.262 110.04 157.26 109.896C158.528 109.999 162.125 110.08 162.044 107.811C161.962 105.972 160.653 105.358 159.795 105.154C160.981 105.256 163.27 105.133 164.067 102.967C164.905 99.4506 158.855 99.7981 158.855 99.7981C158.855 99.7981 165.539 99.328 165.069 95.8733C164.578 92.4186 152.967 93.7269 152.967 93.7269Z" fill="#E1A569"/>
<path d="M203.356 70.2188H135.284C133.159 70.2188 131.441 71.9563 131.441 74.0823C131.441 76.2287 133.159 77.9662 135.284 77.9662H136.061V93.359C140.599 91.0287 153.662 84.8961 155.686 89.7817C155.686 89.7817 156.912 91.4988 152.967 93.727C152.967 93.727 164.578 92.4187 165.068 95.8734C165.539 99.3281 158.854 99.7982 158.854 99.7982C158.854 99.7982 164.905 99.4507 164.067 102.967C163.27 105.134 160.98 105.256 159.794 105.154C160.653 105.358 161.961 105.972 162.043 107.811C162.125 110.081 158.527 109.999 157.26 109.897C158.261 110.04 160.592 110.592 159.835 112.942C158.895 115.927 151.699 115.743 141.356 114.292C139.209 114.108 137.472 113.678 136.061 113.086V125.903H202.579V77.9662H203.356C205.482 77.9662 207.199 76.2287 207.199 74.0823C207.199 71.9563 205.482 70.2188 203.356 70.2188Z" fill="#F5DD00"/>
<path d="M106.973 163.537L101.392 124.861C101.229 123.777 100.963 122.714 100.595 121.733L99.7568 121.938C99.4501 121.999 99.164 122.04 98.8778 122.081C98.7756 122.101 98.6938 122.101 98.5916 122.122C98.4076 122.142 98.2032 122.142 97.9988 122.163C97.8966 122.163 97.7943 122.163 97.6921 122.163C97.4877 122.163 97.3037 122.163 97.1198 122.142C97.0176 122.142 96.9154 122.142 96.8131 122.142C96.5678 122.101 96.343 122.081 96.0977 122.04C96.0159 122.019 95.9341 122.019 95.8524 121.999C95.6275 121.958 95.4026 121.897 95.1982 121.835C95.0756 121.815 94.9529 121.774 94.8507 121.733C94.7076 121.692 94.5645 121.651 94.4214 121.59C94.2783 121.549 94.1557 121.488 94.033 121.447C93.9104 121.386 93.7877 121.345 93.6651 121.284C93.5424 121.222 93.3993 121.161 93.2767 121.079C93.1745 121.038 93.0927 120.977 92.9905 120.936C92.7043 120.772 92.4181 120.588 92.1319 120.384C92.091 120.343 92.0297 120.323 91.9888 120.282C91.8457 120.18 91.7027 120.057 91.5596 119.934C91.4982 119.873 91.4165 119.812 91.3551 119.75C91.2325 119.648 91.1098 119.526 90.9872 119.423C90.9463 119.362 90.885 119.321 90.8441 119.26C90.8236 119.26 90.8236 119.239 90.8032 119.239C90.333 118.749 89.9038 118.197 89.5562 117.584C89.0248 116.725 88.6159 115.785 88.3911 114.742C88.0231 113.127 88.0844 111.492 88.5137 110L85.2634 109.018C76.4734 106.381 67.2745 110.981 63.9221 119.382C63.5541 120.323 63.3088 121.284 63.1044 122.285L56.9105 156.812C55.5 161.759 53.5375 166.522 51.0436 170.998L25.9409 206.71L58.5049 217.831L74.9198 186.902C77.1684 182.63 78.9264 178.133 80.1734 173.472L76.4121 225.333L110.53 221.204L107.77 171.489C107.606 168.831 107.341 166.174 106.973 163.537Z" fill="#EF9936"/>
<path d="M255.361 37.613C253.439 29.4567 245.324 24.4279 237.229 26.3699C232.977 27.392 229.584 30.1312 227.58 33.6881C226.906 34.9147 227.723 36.4478 229.113 36.55L241.379 37.4495C242.278 37.5108 242.973 38.3285 242.871 39.2484C242.523 42.6417 242.38 50.2257 247.491 52.5561C248.82 53.1489 250.25 52.0041 251.62 50.9003C255.157 47.3025 256.628 42.9075 255.361 37.613Z" fill="#EF9936"/>
<path d="M213.006 96.0569L212.29 96.016L210.9 118.747L211.595 118.809L213.006 96.0569ZM235.185 188.802L235.778 189.17L242.503 178.172L241.911 177.804L235.185 188.802ZM229.196 180.789L229.502 181.422L242.279 175.188L241.972 174.554L229.196 180.789ZM238.354 242.237H203.745V242.953H238.926L238.967 242.667C240.95 232.752 252.05 230.442 252.172 230.422L252.029 229.727C251.907 229.747 240.561 232.098 238.354 242.237ZM228.337 233.141L216.481 227.09L216.154 227.723L228.031 233.774L228.337 233.141ZM233.938 226.293L234.04 225.577L219.976 223.431L219.874 224.146L233.938 226.293ZM247.328 205.667L247.246 204.951L217.994 208.569L218.075 209.285L247.328 205.667ZM249.331 146.835L243.137 127.905L242.483 128.13L248.656 147.06L249.331 146.835ZM258.591 97.6923L255.075 108.486C252.5 116.417 244.936 121.446 236.677 120.71L229.38 120.056L229.318 120.751L236.616 121.405C237.168 121.466 237.74 121.487 238.292 121.487C246.203 121.487 253.235 116.417 255.75 108.71L259.266 97.8967L258.591 97.6923ZM238.354 68.8487L233.509 82.1973L234.163 82.4426L237.025 74.5929C238.047 75.2674 241.543 78.0884 243.096 85.795L243.791 85.6519C242.095 77.3321 238.272 74.5111 237.27 73.8978L239.008 69.094C241.604 62.0211 249.331 58.1167 256.261 60.3857C257.181 60.6923 258.06 61.0807 258.877 61.5713L259.245 60.9376C258.366 60.447 257.446 60.0382 256.486 59.7111C249.208 57.3194 241.072 61.4078 238.354 68.8487ZM235.001 45.9333L235.267 46.5261L230.197 48.8156L231.097 50.6962C231.138 50.778 231.199 50.8598 231.24 50.9415L234.143 49.7763L234.368 50.3896L231.587 51.5139C233.243 53.8852 236.166 54.8459 238.538 53.6603L241.706 52.025C242.83 51.473 243.382 50.2261 243.26 48.9382C243.444 48.8565 243.648 48.7951 243.873 48.7134L243.628 48.0388C243.444 48.1205 243.28 48.1819 243.117 48.2228C243.055 48.0183 242.974 47.8139 242.871 47.6095L240.848 43.562C241.584 42.5808 242.442 41.4974 243.035 40.8432L242.503 40.373C241.951 40.9863 241.195 41.9471 240.48 42.8465L240.03 41.9675L229.134 46.5465L229.911 48.2228L235.001 45.9333ZM202.253 95.321C202.253 95.321 184.571 83.3011 181.586 88.984C181.586 88.984 180.196 90.558 183.917 93.1541C183.917 93.1541 172.469 90.7624 171.672 94.1558C170.875 97.5492 177.498 98.653 177.498 98.653C177.498 98.653 171.488 97.7331 171.999 101.31C172.612 103.559 174.861 103.886 176.067 103.886C175.188 104.009 173.818 104.499 173.573 106.319C173.267 108.567 176.885 108.833 178.132 108.874C177.13 108.894 174.759 109.242 175.29 111.654C175.965 114.7 183.14 115.191 193.565 114.72C212.27 114.802 202.253 95.321 202.253 95.321ZM99.4711 81.7475L112.779 102.21L89.2502 117.766L87.2673 114.741L73.5303 115.088C66.6414 115.272 60.9176 109.794 60.7337 102.844L60.0795 77.5774C59.8138 66.6409 68.3585 57.5647 79.2132 57.299C90.0474 57.0128 99.0623 65.6393 99.3281 76.5553L99.4711 81.7475Z" fill="#F8C1C1"/>
<path d="M267.319 246.203V0H151.209V70.2181H151.904V0.715468H266.624V246.203H259.429V246.244H258.672V246.939H259.429V246.98H291.809V246.203H267.319ZM79.3761 224.964L78.7832 224.555L74.4496 230.892L75.0219 231.301L79.3761 224.964ZM93.2766 44.6043C93.2766 45.1767 93.7467 45.6264 94.2987 45.6264C94.8711 45.6264 95.3412 45.1767 95.3412 44.6043C95.3412 44.0319 94.8711 43.5618 94.2987 43.5618C93.7467 43.5618 93.2766 44.0319 93.2766 44.6043ZM92.5611 44.6043C92.5611 43.6435 93.3584 42.8463 94.2987 42.8463C95.2595 42.8463 96.0363 43.6435 96.0363 44.6043C96.0363 45.5651 95.2595 46.3419 94.2987 46.3419C93.3584 46.3419 92.5611 45.5651 92.5611 44.6043ZM88.9225 48.059C89.086 49.1833 90.0468 50.0419 91.1915 50.0419C92.3567 50.0419 93.3175 49.1833 93.481 48.059H88.9225ZM88.1865 47.364H94.2169V47.7115C94.2169 49.3877 92.8473 50.7369 91.1915 50.7369C89.5357 50.7369 88.1865 49.3877 88.1865 47.7115V47.364ZM89.1882 41.2723C88.1457 41.2723 87.2871 42.1308 87.2871 43.1938H88.0026C88.0026 42.5192 88.5341 41.9878 89.1882 41.9878C89.4948 41.9878 89.781 42.1104 89.9854 42.2944C89.5357 42.3557 89.1882 42.7441 89.1882 43.2143C89.1882 43.7253 89.6175 44.1546 90.1285 44.1546C90.66 44.1546 91.0689 43.7253 91.0689 43.2143C91.0689 43.1938 91.0689 43.1938 91.0689 43.1938H91.1097C91.1097 42.1308 90.2512 41.2723 89.1882 41.2723ZM73.5297 135.244C73.5297 138.617 76.2689 141.376 79.6214 141.376C82.9738 141.376 85.7131 138.617 85.7131 135.244V125.432C85.7131 124.716 85.1407 124.144 84.4457 124.144H74.7971C74.102 124.144 73.5297 124.716 73.5297 125.432V135.244ZM74.7971 123.449H84.4457C85.5291 123.449 86.4081 124.328 86.4081 125.432V135.244C86.4081 139.026 83.3623 142.092 79.6214 142.092C75.8805 142.092 72.8142 139.026 72.8142 135.244V125.432C72.8142 124.328 73.7137 123.449 74.7971 123.449ZM65.2098 134.549C64.8214 137.39 62.5728 139.557 59.7518 139.823L59.8131 140.518C62.9612 140.232 65.4755 137.82 65.9048 134.651L67.254 124.941C67.3358 124.41 67.1927 123.878 66.886 123.469C66.559 123.04 66.1093 122.774 65.5982 122.693L63.0634 122.345L62.9612 123.04L65.496 123.408C65.8231 123.449 66.1092 123.612 66.3137 123.899C66.5181 124.164 66.6203 124.491 66.559 124.839L65.2098 134.549ZM78.5993 155.073C80.0507 165.028 80.3368 175.187 79.4783 185.204L79.3965 186.206L80.0915 186.267L80.1937 185.265C81.0523 175.187 80.7457 164.987 79.3147 154.97C78.8241 151.597 76.9844 148.531 74.2451 146.528L67.5606 141.601L67.1518 142.174L73.8363 147.1C76.412 149.001 78.1496 151.904 78.5993 155.073ZM82.9534 230.074L83.5667 224.8L82.8716 224.718L82.2584 229.992L82.9534 230.074ZM87.3893 40.1071L87.8799 40.6181C89.2904 39.2485 90.5374 39.8618 90.5987 39.8822L90.9053 39.2485C90.844 39.2281 89.1678 38.3695 87.3893 40.1071ZM66.5794 98.8777C68.6236 109.324 73.9794 114.925 74.0407 114.986L74.5313 114.495C74.4904 114.434 69.2573 108.976 67.254 98.755L66.5794 98.8777ZM79.7031 44.2772C80.0915 44.2568 80.3982 44.3999 80.6639 44.6452L81.1545 44.1342C80.7457 43.7458 80.2346 43.5618 79.6827 43.5618C78.5584 43.5822 77.6794 44.543 77.6998 45.6673C77.7203 46.7916 78.6402 47.6706 79.744 47.6706C79.7645 47.6706 79.7849 47.6706 79.7849 47.6706V46.9756C79.0286 46.996 78.4153 46.4032 78.3949 45.6469C78.3744 44.9109 78.9672 44.2977 79.7031 44.2772ZM24.3668 210.102L31.5828 206.791L31.2762 206.157L24.0806 209.448L24.3668 210.102ZM29.4568 212.187L35.0988 207.935L34.6695 207.363L29.048 211.615L29.4568 212.187ZM42.6623 75.7987L43.1734 75.9214L52.3518 78.0065L52.7607 78.1087V78.0882C57.6463 79.049 62.4706 77.3319 65.68 73.8976C64.801 77.6589 65.3733 81.7678 67.6424 85.2429L86.9805 114.925L87.5528 114.536L68.2352 84.8545C65.7617 81.0728 65.3938 76.4938 66.8247 72.5485C67.5811 71.5059 68.1943 70.3407 68.6645 69.0938C69.6048 67.7855 70.77 66.6407 72.1805 65.7004C75.2468 63.6767 78.9059 62.9816 82.5037 63.738C86.081 64.4739 89.1678 66.5999 91.1711 69.6866L92.5611 71.8125C89.8832 76.8208 89.8423 87.9208 89.8423 88.391H90.5374C90.5374 88.2887 90.5783 77.5159 93.0108 72.4871L99.1639 81.9518L99.7567 81.5634L91.7639 69.2982C87.4098 62.5932 78.4357 60.7126 71.7921 65.1076C70.8109 65.7617 69.9523 66.5181 69.196 67.3358V67.3153L73.5501 47.9159C74.2451 49.5308 75.3286 51.0026 76.8004 52.1678C77.1479 52.454 77.5158 52.6993 77.8838 52.9242L78.8241 49.4286C78.3949 49.306 77.9656 49.1015 77.5772 48.7949C76.0032 47.5275 75.717 45.2176 76.9844 43.6231C78.0678 42.2331 79.9484 41.8447 81.4611 42.6215C88.6158 40.6999 90.1899 35.0579 90.1899 35.0579C85.4882 31.3375 78.7015 32.1552 75.0015 36.8773C74.4087 37.6336 73.9385 38.4513 73.591 39.3099C72.2623 35.6303 69.196 32.7071 65.128 31.7872C58.8115 30.3358 52.5154 34.3425 51.0844 40.6999L47.0369 58.791L46.5259 58.6684C41.8242 57.6054 37.1635 60.5695 36.1005 65.2916C35.0375 70.0341 37.9811 74.7357 42.6623 75.7987ZM36.4275 213.23C37.327 211.451 37.4701 210.879 37.4905 210.818L36.8159 210.634C36.8159 210.634 36.6524 211.206 35.7938 212.903L36.4275 213.23ZM27.4535 206.177L27.3104 205.503L20.8508 206.832L20.9939 207.527L27.4535 206.177ZM253.685 238.885C253.868 237.862 253.807 236.799 253.541 235.777L252.09 230.074L252.172 230.422C252.049 230.442 240.949 232.752 238.966 242.666L238.925 242.952H203.929C204.849 244.404 206.198 245.549 207.751 246.182H151.904V125.902H151.209V246.182H139.762V246.203H125.902C126.904 245.671 127.599 244.608 127.599 243.382C127.599 241.624 126.188 240.213 124.451 240.213H107.484L111.306 234.265C122.488 233.406 126.617 236.902 126.679 236.943L127.128 236.411C126.944 236.248 122.897 232.772 111.777 233.529L115.068 228.439C125.37 228.561 127.088 232.077 127.108 232.118L127.762 231.832C127.68 231.669 125.984 227.969 115.517 227.744L117.582 224.514C118.379 223.287 118.032 221.652 116.826 220.855C115.599 220.078 113.984 220.425 113.187 221.652L101.31 240.05C101.29 240.111 101.269 240.152 101.229 240.213H79.1921C77.4545 240.213 76.044 241.624 76.044 243.382C76.044 244.608 76.7391 245.671 77.7407 246.203H64.0855C64.6988 245.876 65.2098 245.365 65.5164 244.67C66.2115 243.075 65.496 241.194 63.9015 240.479L48.3861 233.549L54.2734 229.686C64.8623 233.467 67.2336 238.353 67.254 238.394L67.8877 238.108C67.7855 237.883 65.4755 233.038 55.0093 229.195L60.0584 225.883C69.4413 230.217 69.5844 234.142 69.5844 234.183H70.2998C70.2998 233.999 70.2385 229.911 60.7535 225.434L63.9424 223.349C65.1689 222.551 65.496 220.896 64.7192 219.69C63.922 218.463 62.2866 218.116 61.0805 218.913L59.7722 219.771L57.8711 215.008L57.217 215.274L59.1794 220.16L42.8259 230.892C42.7645 230.933 42.7237 230.974 42.6828 231.014L22.527 222.02C20.9325 221.304 19.0723 222.02 18.3773 223.635C17.6618 225.229 18.3773 227.11 19.9718 227.825L61.1214 246.203H0V246.98H139.762V247H258.468V246.182H247.818C250.802 245.058 253.071 242.298 253.685 238.885ZM64.8827 206.137L33.995 195.589L33.7701 196.243L64.6579 206.811L64.8827 206.137ZM88.3705 226.517C88.4523 224.514 88.3705 223.921 88.3705 223.86L87.6755 223.982C87.6755 223.982 87.7573 224.555 87.6551 226.476L88.3705 226.517ZM50.3076 220.814L52.0452 213.148L51.3502 212.985L49.633 220.65L50.3076 220.814ZM39.5756 217.134L44.4408 211.595L43.9297 211.124L39.0441 216.664L39.5756 217.134ZM54.9684 219.526V214.62H54.2734V219.526H54.9684ZM224.125 97.0583L213.005 96.0567L211.595 118.809L211.206 118.768L229.032 120.383L215.254 166.418C214.722 168.237 214.313 170.077 214.129 171.958C214.109 172.039 214.109 172.142 214.088 172.244C213.884 174.329 213.945 176.434 214.17 178.499L215.826 191.459H160.101V192.175H215.908L218.034 208.937L217.993 208.569L247.225 204.951L244.751 192.175H259.429V191.459H244.608L242.891 182.587C242.585 181.259 242.38 179.93 242.257 178.581L235.777 189.17L235.185 188.802L241.91 177.804L242.217 177.988C242.155 177.089 242.114 176.169 242.135 175.249L229.502 181.422L229.195 180.789L241.971 174.554L242.135 174.86C242.196 172.264 242.585 169.689 243.3 167.174L249.003 146.937L248.656 147.059L242.482 128.13L243.136 127.905L249.33 146.834L249.003 146.937L258.938 177.334V98.9186L255.749 108.71C253.235 116.417 246.203 121.486 238.292 121.486C237.74 121.486 237.167 121.466 236.615 121.405L229.318 120.751L229.379 120.056L236.677 120.71C244.935 121.446 252.499 116.417 255.075 108.485L258.591 97.692L258.938 97.7943V61.4689L258.877 61.5711C258.059 61.0805 257.18 60.6921 256.26 60.3855C249.33 58.1165 241.603 62.0209 239.007 69.0938L237.27 73.8976C238.271 74.5109 242.094 77.3319 243.791 85.6517L243.096 85.7948C241.542 78.0882 238.046 75.2672 237.024 74.5927L234.162 82.4424L233.774 82.2993L233.795 82.4219L229.788 93.4401C228.929 95.8114 226.619 97.2832 224.125 97.0583ZM208.794 229.788C205.155 230.667 202.58 234.142 202.58 238.149C202.58 239.764 203.009 241.297 203.745 242.585V242.237H238.353C240.561 232.098 251.906 229.747 252.029 229.727L247.286 205.298L247.327 205.666L218.075 209.285L219.935 223.778L219.976 223.43L234.04 225.577L233.938 226.292L219.976 224.146L220.242 226.17L216.807 227.253L228.337 233.14L228.03 233.774L216.153 227.723L216.317 227.417L208.794 229.788ZM230.095 51.4319L230.34 52.0247L234.367 50.3894L234.142 49.7761L230.095 51.4319ZM245.426 51.0435C244.935 50.5325 244.527 49.9601 244.199 49.3264C243.382 50.3689 242.074 51.943 240.193 52.8015L240.867 54.7231C240.867 54.7231 243.32 53.2921 245.426 51.0435ZM160.142 104.888L155.543 104.458L155.461 105.153L160.081 105.603L160.142 104.888ZM153.028 109.814L158.016 110.305L158.078 109.589L153.09 109.119L153.028 109.814ZM233.672 81.7678L238.353 68.8485C241.072 61.4076 249.208 57.3192 256.485 59.7109C257.344 59.9971 258.161 60.3651 258.938 60.7943V55.091C255.586 53.8236 251.845 53.4557 248.063 54.2529C238.782 56.1745 232.404 64.4126 232.404 73.591C232.404 74.9197 232.548 76.2689 232.813 77.6181L233.672 81.7678ZM236.166 41.1701C235.716 40.9043 235.205 40.8226 234.714 40.9452C234.224 41.0679 233.795 41.354 233.529 41.8038C233.263 42.2331 233.181 42.7441 233.304 43.2552L233.978 43.0916C233.897 42.7645 233.958 42.4375 234.122 42.1717C234.306 41.906 234.571 41.7016 234.878 41.6402C235.185 41.5585 235.512 41.6198 235.777 41.7833C236.064 41.9469 236.248 42.2126 236.329 42.5397L237.004 42.3761C236.902 41.8855 236.595 41.4563 236.166 41.1701ZM203.356 77.6181H135.285V78.3131H203.356V77.6181ZM235.839 39.9844L236.207 39.3916C234.081 38.1038 232.65 39.3099 232.588 39.3712L233.038 39.9027C233.059 39.9027 234.162 38.9828 235.839 39.9844ZM247.818 39.8822C245.16 38.2878 237.535 34.138 229.502 33.5043C229.44 33.4839 229.399 33.4839 229.338 33.4839C228.541 33.4839 227.805 33.9336 227.498 34.6287C226.906 35.9165 226.415 38.1038 227.335 41.2927C227.662 42.4375 228.623 43.2756 229.767 43.4391C232.364 43.7866 237.822 44.359 246.141 44.5226C245.712 44.0319 245.426 43.3778 245.426 42.6623C245.426 41.2518 246.469 40.0867 247.818 39.8822ZM249.351 40.0662V40.1071C250.332 40.5364 251.007 41.5176 251.007 42.6623C251.007 44.2159 249.76 45.4833 248.227 45.4833C247.818 45.4833 247.429 45.3811 247.082 45.2176C243.831 45.1767 240.99 45.054 238.578 44.9109L238.619 45.0132L235.266 46.5259L229.481 49.1424L229.216 48.5496L235.001 45.933L237.392 44.8496C233.815 44.6043 231.239 44.3181 229.686 44.1137C228.275 43.9093 227.09 42.8872 226.701 41.4971C225.72 38.0833 226.251 35.7325 226.885 34.3629C227.335 33.3408 228.418 32.7276 229.563 32.8298C239.641 33.627 249.085 39.8822 249.187 39.9436L249.351 40.0662ZM242.789 40.3115C242.809 39.9231 242.83 39.5552 242.871 39.2485C242.973 38.3286 242.278 37.511 241.378 37.4496L233.774 36.8977C235.266 38.39 238.067 40.332 242.544 40.475C242.625 40.4137 242.707 40.3524 242.789 40.3115ZM159.713 99.4501L155.665 99.7158L155.706 100.431L159.754 100.145L159.713 99.4501ZM103.232 220.221L109.283 223.676L109.63 223.062L103.579 219.587L103.232 220.221ZM143.85 95.239L153.008 94.0738L152.926 93.3788L143.768 94.544L143.85 95.239ZM77.6181 209.612L109.507 205.442L109.405 204.747L77.5363 208.917L77.6181 209.612ZM183.977 92.8064L183.834 93.5014L192.849 95.5252L193.013 94.8302L183.977 92.8064ZM93.1744 228.009L93.849 227.846L92.8882 223.308L92.1932 223.451L93.1744 228.009ZM200.965 117.848L210.9 118.747L212.29 96.0158H212.535L202.968 95.1572L200.965 117.848ZM177.354 109.18H182.363V108.465H177.354V109.18ZM102.598 227.355L103.13 226.885L98.1009 221.039L97.5694 221.488L102.598 227.355ZM176.557 98.9186L180.564 99.5727L180.686 98.8777L176.68 98.2235L176.557 98.9186ZM175.739 103.6H180.359V104.315H175.739V103.6Z" fill="#1F2A4A"/>
</svg>
