<svg width="31" height="30" viewBox="0 0 31 30" fill="none" xmlns="http://www.w3.org/2000/svg">
<rect x="1" y="0.5" width="29" height="29" rx="14.5" fill="#25ADFA"/>
<path d="M13.662 19.6667H21.5V21.0001H9.5V18.1714L16.1 11.5714L18.928 14.4007L13.6613 19.6667H13.662ZM17.042 10.6294L18.4567 9.21472C18.5817 9.08974 18.7512 9.01953 18.928 9.01953C19.1048 9.01953 19.2743 9.08974 19.3993 9.21472L21.2853 11.1007C21.4103 11.2257 21.4805 11.3953 21.4805 11.5721C21.4805 11.7488 21.4103 11.9184 21.2853 12.0434L19.8707 13.4574L17.0427 10.6294H17.042Z" fill="white"/>
<rect x="1" y="0.5" width="29" height="29" rx="14.5" stroke="white"/>
</svg>
