<svg width="170" height="170" viewBox="0 0 170 170" fill="none" xmlns="http://www.w3.org/2000/svg">
<rect x="1" y="1" width="168" height="168" rx="84" fill="#EFEFF0"/>
<mask id="mask0_256_7840" style="mask-type:alpha" maskUnits="userSpaceOnUse" x="75" y="75" width="20" height="20">
<path fill-rule="evenodd" clip-rule="evenodd" d="M75.0004 75.0002H94.96V94.95H75.0004V75.0002Z" fill="white"/>
</mask>
<g mask="url(#mask0_256_7840)">
<path fill-rule="evenodd" clip-rule="evenodd" d="M80.6504 76.5C78.1294 76.5 76.5004 78.227 76.5004 80.899V89.051C76.5004 91.724 78.1294 93.45 80.6504 93.45H89.3004C91.8274 93.45 93.4604 91.724 93.4604 89.051V80.899C93.4604 78.227 91.8274 76.5 89.3004 76.5H80.6504ZM89.3004 94.95H80.6504C77.2704 94.95 75.0004 92.579 75.0004 89.051V80.899C75.0004 77.371 77.2704 75 80.6504 75H89.3004C92.6854 75 94.9604 77.371 94.9604 80.899V89.051C94.9604 92.579 92.6854 94.95 89.3004 94.95Z" fill="#AFB1B6"/>
</g>
<path fill-rule="evenodd" clip-rule="evenodd" d="M78.2814 90.1804C78.0954 90.1804 77.9104 90.1124 77.7654 89.9744C77.4644 89.6904 77.4524 89.2144 77.7374 88.9154L79.2654 87.3024C80.0744 86.4434 81.4394 86.4014 82.3024 87.2114L83.2604 88.1834C83.5274 88.4534 83.9614 88.4584 84.2294 88.1944C84.3304 88.0754 86.5084 85.4304 86.5084 85.4304C86.9224 84.9284 87.5064 84.6184 88.1554 84.5544C88.8054 84.4974 89.4364 84.6864 89.9394 85.0994C89.9824 85.1344 90.0214 85.1684 92.2174 87.4234C92.5064 87.7194 92.5014 88.1944 92.2044 88.4834C91.9084 88.7744 91.4324 88.7654 91.1434 88.4694C91.1434 88.4694 89.0944 86.3664 88.9484 86.2244C88.7934 86.0974 88.5444 86.0234 88.2994 86.0474C88.0504 86.0724 87.8264 86.1914 87.6674 86.3844C85.3434 89.2034 85.3154 89.2304 85.2774 89.2674C84.4194 90.1094 83.0344 90.0954 82.1914 89.2354C82.1914 89.2354 81.2614 88.2914 81.2454 88.2724C81.0144 88.0584 80.6024 88.0724 80.3554 88.3334L78.8254 89.9464C78.6774 90.1024 78.4794 90.1804 78.2814 90.1804Z" fill="#AFB1B6"/>
<path fill-rule="evenodd" clip-rule="evenodd" d="M81.5576 81.1289C81.0046 81.1289 80.5546 81.5789 80.5546 82.1329C80.5546 82.6869 81.0046 83.1379 81.5586 83.1379C82.1126 83.1379 82.5636 82.6869 82.5636 82.1329C82.5636 81.5799 82.1126 81.1299 81.5576 81.1289ZM81.5586 84.6379C80.1776 84.6379 79.0546 83.5139 79.0546 82.1329C79.0546 80.7519 80.1776 79.6289 81.5586 79.6289C82.9406 79.6299 84.0636 80.7539 84.0636 82.1329C84.0636 83.5139 82.9396 84.6379 81.5586 84.6379Z" fill="#AFB1B6"/>
<rect x="1" y="1" width="168" height="168" rx="84" stroke="#AFB1B6" stroke-width="2"/>
</svg>
