<svg width="301" height="327" viewBox="0 0 301 327" fill="none" xmlns="http://www.w3.org/2000/svg">
<rect x="1" y="1" width="299" height="325" rx="7" fill="#EFEFF0"/>
<mask id="mask0_256_7872" style="mask-type:alpha" maskUnits="userSpaceOnUse" x="141" y="154" width="20" height="20">
<path fill-rule="evenodd" clip-rule="evenodd" d="M141 154H160.96V173.95H141V154Z" fill="white"/>
</mask>
<g mask="url(#mask0_256_7872)">
<path fill-rule="evenodd" clip-rule="evenodd" d="M146.65 155.5C144.129 155.5 142.5 157.227 142.5 159.899V168.051C142.5 170.724 144.129 172.45 146.65 172.45H155.3C157.827 172.45 159.46 170.724 159.46 168.051V159.899C159.46 157.227 157.827 155.5 155.3 155.5H146.65ZM155.3 173.95H146.65C143.27 173.95 141 171.579 141 168.051V159.899C141 156.371 143.27 154 146.65 154H155.3C158.685 154 160.96 156.371 160.96 159.899V168.051C160.96 171.579 158.685 173.95 155.3 173.95Z" fill="#AFB1B6"/>
</g>
<path fill-rule="evenodd" clip-rule="evenodd" d="M144.281 169.18C144.095 169.18 143.91 169.112 143.765 168.974C143.464 168.69 143.452 168.214 143.737 167.915L145.265 166.302C146.074 165.443 147.439 165.401 148.302 166.211L149.26 167.183C149.527 167.453 149.961 167.458 150.229 167.194C150.33 167.075 152.508 164.43 152.508 164.43C152.922 163.928 153.506 163.618 154.155 163.554C154.805 163.497 155.436 163.686 155.939 164.099C155.982 164.134 156.021 164.168 158.217 166.423C158.506 166.719 158.501 167.194 158.204 167.483C157.908 167.774 157.432 167.765 157.143 167.469C157.143 167.469 155.094 165.366 154.948 165.224C154.793 165.097 154.544 165.023 154.299 165.047C154.05 165.072 153.826 165.191 153.667 165.384C151.343 168.203 151.315 168.23 151.277 168.267C150.419 169.109 149.034 169.095 148.191 168.235C148.191 168.235 147.261 167.291 147.245 167.272C147.014 167.058 146.602 167.072 146.355 167.333L144.825 168.946C144.677 169.102 144.479 169.18 144.281 169.18Z" fill="#AFB1B6"/>
<path fill-rule="evenodd" clip-rule="evenodd" d="M147.558 160.129C147.005 160.129 146.555 160.579 146.555 161.133C146.555 161.687 147.005 162.138 147.559 162.138C148.113 162.138 148.564 161.687 148.564 161.133C148.564 160.58 148.113 160.13 147.558 160.129ZM147.559 163.638C146.178 163.638 145.055 162.514 145.055 161.133C145.055 159.752 146.178 158.629 147.559 158.629C148.941 158.63 150.064 159.754 150.064 161.133C150.064 162.514 148.94 163.638 147.559 163.638Z" fill="#AFB1B6"/>
<rect x="1" y="1" width="299" height="325" rx="7" stroke="#AFB1B6" stroke-width="2"/>
</svg>
